<svg width="561" height="243" viewBox="0 0 561 243" fill="none" xmlns="http://www.w3.org/2000/svg">
<g filter="url(#filter0_i_1206_284)">
<rect x="25.9072" y="119.404" width="184" height="63" rx="11" transform="rotate(-18.0311 25.9072 119.404)" stroke="url(#paint0_linear_1206_284)" stroke-width="2"/>
<path d="M59.9174 134.33C61.6924 133.752 63.0991 133.68 64.1376 134.113C65.176 134.546 65.9015 135.396 66.3142 136.664C66.4958 137.222 66.5762 137.792 66.5552 138.374C66.5428 138.939 66.3934 139.492 66.1071 140.034C65.8208 140.576 65.3681 141.081 64.7492 141.549C64.1262 142.004 63.3076 142.397 62.2933 142.727L60.7338 143.234L62.4548 148.521L60.7432 149.078L56.3231 135.5L59.9174 134.33ZM60.242 135.844L58.5114 136.407L60.2571 141.77L61.6264 141.324C62.4886 141.044 63.176 140.722 63.6888 140.358C64.1974 139.983 64.5251 139.546 64.672 139.05C64.8188 138.553 64.785 137.975 64.5704 137.316C64.2856 136.441 63.7941 135.879 63.0959 135.63C62.3978 135.38 61.4464 135.451 60.242 135.844ZM72.5164 133.783C73.7589 133.379 74.7668 133.352 75.5401 133.703C76.3135 134.054 76.8941 134.826 77.2821 136.018L79.5417 142.959L78.3246 143.355L77.5308 142.015L77.4547 142.04C77.2828 142.503 77.0796 142.912 76.8452 143.269C76.6193 143.609 76.3221 143.902 75.9535 144.148C75.5976 144.39 75.1344 144.604 74.5639 144.79C73.9553 144.988 73.3687 145.06 72.8041 145.005C72.2522 144.946 71.7645 144.741 71.3411 144.388C70.9136 144.022 70.5884 143.497 70.3656 142.812C70.0354 141.798 70.181 140.888 70.8022 140.083C71.4194 139.265 72.5502 138.561 74.1945 137.969L75.9066 137.349L75.7085 136.74C75.432 135.891 75.0562 135.361 74.5812 135.151C74.1062 134.941 73.5328 134.946 72.8608 135.164C72.3283 135.338 71.848 135.585 71.4199 135.907C70.9876 136.216 70.5953 136.54 70.2429 136.879L69.3209 135.791C69.6862 135.405 70.1463 135.031 70.7013 134.668C71.252 134.293 71.8571 133.998 72.5164 133.783ZM74.7814 139.061C73.53 139.525 72.7149 140.014 72.336 140.53C71.9698 141.042 71.8919 141.621 72.1024 142.268C72.2881 142.838 72.5955 143.201 73.0244 143.356C73.4661 143.507 73.9595 143.493 74.5047 143.316C75.3668 143.035 76.0068 142.567 76.4247 141.913C76.8384 141.245 76.8843 140.417 76.5623 139.428L76.2652 138.515L74.7814 139.061ZM81.9914 130.678C82.7648 130.426 83.4719 130.315 84.1125 130.345C84.7491 130.362 85.2919 130.522 85.7409 130.824C86.1858 131.114 86.5012 131.544 86.6869 132.115C86.8891 132.736 86.8789 133.286 86.6563 133.765C86.4295 134.232 86.045 134.644 85.5028 135.003L85.5275 135.079C85.9704 135.061 86.396 135.098 86.8044 135.19C87.2127 135.281 87.572 135.458 87.8821 135.722C88.205 135.982 88.451 136.371 88.6202 136.891C88.8018 137.449 88.8084 138.008 88.64 138.567C88.4843 139.123 88.1265 139.639 87.5666 140.116C87.0193 140.588 86.2449 140.987 85.2433 141.313C84.7615 141.47 84.2905 141.596 83.8302 141.689C83.3826 141.779 82.9648 141.831 82.5768 141.845C82.2015 141.855 81.858 141.834 81.5463 141.781L81.0573 140.278C81.5544 140.341 82.1214 140.36 82.7582 140.335C83.4078 140.305 84.0812 140.177 84.7785 139.95C85.2857 139.785 85.7235 139.58 86.0921 139.333C86.4733 139.083 86.7452 138.798 86.9077 138.479C87.066 138.147 87.075 137.766 86.9347 137.334C86.8068 136.941 86.5958 136.66 86.3019 136.489C86.0038 136.305 85.6186 136.221 85.1462 136.234C84.6866 136.243 84.1271 136.355 83.4678 136.57L82.0985 137.016L81.6528 135.647L82.7558 135.287C83.6307 135.003 84.2908 134.662 84.7364 134.264C85.1905 133.85 85.3246 133.358 85.1389 132.787C84.9821 132.305 84.6616 132.01 84.1775 131.901C83.706 131.788 83.0963 131.853 82.3483 132.097C81.7904 132.279 81.3145 132.497 80.9206 132.751C80.5352 132.989 80.124 133.298 79.6871 133.678L78.6642 132.539C79.1309 132.121 79.6437 131.757 80.2024 131.449C80.7612 131.141 81.3575 130.884 81.9914 130.678ZM90.3686 128.161L91.7491 132.402L97.2832 130.601L95.9027 126.36L97.5763 125.815L100.894 136.008L99.2209 136.553L97.7414 132.008L92.2072 133.809L93.6868 138.355L92.0132 138.899L88.695 128.706L90.3686 128.161ZM111.319 126.957C111.596 127.806 111.727 128.598 111.714 129.332C111.708 130.048 111.571 130.703 111.301 131.296C111.044 131.884 110.657 132.396 110.139 132.831C109.63 133.249 109.015 133.575 108.292 133.811C107.62 134.029 106.962 134.118 106.317 134.075C105.668 134.02 105.06 133.832 104.493 133.512C103.926 133.192 103.417 132.747 102.965 132.179C102.523 131.594 102.163 130.877 101.886 130.028C101.519 128.899 101.4 127.886 101.528 126.989C101.653 126.079 102.004 125.306 102.582 124.669C103.156 124.02 103.931 123.536 104.907 123.218C105.832 122.917 106.712 122.862 107.546 123.053C108.388 123.228 109.133 123.644 109.782 124.302C110.439 124.944 110.952 125.829 111.319 126.957ZM103.617 129.464C103.877 130.263 104.205 130.927 104.602 131.457C105.008 131.97 105.484 132.313 106.031 132.486C106.578 132.658 107.193 132.633 107.878 132.41C108.563 132.187 109.075 131.845 109.416 131.384C109.756 130.922 109.933 130.367 109.946 129.718C109.968 129.052 109.849 128.319 109.589 127.52C109.324 126.709 108.992 126.053 108.59 125.553C108.189 125.052 107.717 124.722 107.174 124.562C106.64 124.386 106.024 124.411 105.327 124.638C104.287 124.976 103.644 125.564 103.398 126.402C103.152 127.239 103.225 128.26 103.617 129.464ZM122.834 123.209C123.11 124.058 123.242 124.85 123.228 125.583C123.223 126.3 123.086 126.955 122.816 127.547C122.559 128.136 122.171 128.648 121.654 129.082C121.145 129.501 120.529 129.827 119.807 130.062C119.135 130.281 118.476 130.369 117.831 130.327C117.182 130.272 116.574 130.084 116.008 129.764C115.441 129.443 114.931 128.999 114.48 128.431C114.037 127.846 113.678 127.129 113.401 126.279C113.034 125.151 112.914 124.138 113.043 123.241C113.167 122.331 113.519 121.558 114.097 120.921C114.67 120.271 115.445 119.788 116.422 119.47C117.347 119.169 118.227 119.114 119.06 119.305C119.902 119.48 120.648 119.896 121.297 120.554C121.954 121.196 122.467 122.08 122.834 123.209ZM115.132 125.716C115.392 126.515 115.72 127.179 116.117 127.709C116.522 128.222 116.998 128.565 117.545 128.737C118.092 128.91 118.708 128.885 119.393 128.662C120.077 128.439 120.59 128.097 120.931 127.635C121.271 127.174 121.448 126.619 121.461 125.969C121.482 125.303 121.363 124.571 121.103 123.772C120.839 122.961 120.506 122.305 120.105 121.804C119.704 121.304 119.232 120.974 118.689 120.814C118.155 120.637 117.539 120.663 116.842 120.89C115.802 121.228 115.159 121.816 114.913 122.653C114.667 123.491 114.74 124.512 115.132 125.716ZM124.626 121.511C124.143 120.027 123.878 118.718 123.831 117.584C123.793 116.432 123.983 115.445 124.402 114.622C124.83 113.781 125.503 113.092 126.422 112.555C127.188 112.109 127.942 111.689 128.682 111.293C129.423 110.898 130.117 110.532 130.764 110.195L131.526 111.566C131.213 111.724 130.866 111.907 130.485 112.116C130.1 112.311 129.711 112.515 129.317 112.727C128.919 112.927 128.536 113.129 128.168 113.333C127.808 113.52 127.493 113.693 127.222 113.851C126.833 114.076 126.508 114.35 126.249 114.673C125.985 114.983 125.791 115.354 125.665 115.788C125.553 116.217 125.511 116.714 125.541 117.28C125.571 117.845 125.688 118.487 125.894 119.205L126.008 119.168C126.107 118.869 126.268 118.543 126.489 118.191C126.724 117.834 127.028 117.497 127.401 117.179C127.787 116.857 128.259 116.605 128.817 116.424C129.704 116.135 130.504 116.092 131.215 116.295C131.934 116.481 132.552 116.869 133.066 117.459C133.593 118.045 134.005 118.794 134.302 119.707C134.67 120.835 134.781 121.844 134.635 122.732C134.49 123.621 134.13 124.369 133.557 124.976C132.979 125.571 132.228 126.019 131.302 126.32C130.605 126.547 129.928 126.621 129.27 126.54C128.609 126.447 127.989 126.2 127.41 125.8C126.831 125.399 126.306 124.841 125.834 124.125C125.363 123.409 124.96 122.538 124.626 121.511ZM130.983 124.889C131.541 124.707 131.986 124.436 132.317 124.076C132.661 123.711 132.863 123.232 132.922 122.638C132.981 122.044 132.87 121.316 132.59 120.454C132.251 119.414 131.788 118.66 131.201 118.192C130.623 117.708 129.89 117.61 129.002 117.899C128.445 118.08 127.979 118.372 127.605 118.774C127.227 119.164 126.937 119.566 126.736 119.982C126.535 120.398 126.406 120.735 126.35 120.992C126.552 121.613 126.792 122.201 127.071 122.755C127.349 123.309 127.673 123.786 128.041 124.185C128.418 124.567 128.848 124.834 129.332 124.985C129.824 125.119 130.375 125.087 130.983 124.889ZM140.006 111.793C141.261 111.384 142.411 111.494 143.457 112.121C144.515 112.744 145.331 113.937 145.904 115.699C146.28 116.853 146.42 117.887 146.325 118.801C146.239 119.698 145.945 120.453 145.443 121.065C144.949 121.661 144.278 122.096 143.429 122.373C142.909 122.542 142.423 122.623 141.972 122.616C141.521 122.608 141.115 122.544 140.753 122.424C140.4 122.286 140.078 122.117 139.789 121.917L139.675 121.954C139.77 122.162 139.884 122.426 140.017 122.747C140.15 123.069 140.255 123.35 140.334 123.591L141.695 127.775L140.022 128.319L135.218 113.562L136.587 113.116L137.267 114.43L137.343 114.405C137.451 114.048 137.606 113.703 137.806 113.371C138.019 113.035 138.3 112.734 138.647 112.466C139.008 112.195 139.46 111.97 140.006 111.793ZM140.159 113.299C139.475 113.522 138.967 113.835 138.635 114.237C138.299 114.627 138.121 115.113 138.1 115.694C138.079 116.276 138.192 116.968 138.439 117.771L138.544 118.095C138.817 118.931 139.137 119.613 139.504 120.138C139.871 120.663 140.314 121.01 140.831 121.178C141.361 121.342 141.994 121.305 142.729 121.065C143.351 120.863 143.802 120.527 144.084 120.056C144.378 119.582 144.525 119.022 144.526 118.377C144.534 117.715 144.415 117.004 144.167 116.243C143.788 115.077 143.256 114.219 142.573 113.67C141.902 113.118 141.098 112.994 140.159 113.299ZM150.723 108.325C151.966 107.921 152.974 107.894 153.747 108.245C154.52 108.596 155.101 109.368 155.489 110.56L157.749 117.501L156.531 117.897L155.738 116.557L155.662 116.582C155.49 117.045 155.286 117.454 155.052 117.811C154.826 118.151 154.529 118.444 154.16 118.69C153.805 118.932 153.341 119.146 152.771 119.332C152.162 119.53 151.576 119.602 151.011 119.547C150.459 119.488 149.971 119.283 149.548 118.93C149.12 118.564 148.795 118.039 148.572 117.354C148.242 116.34 148.388 115.43 149.009 114.625C149.626 113.807 150.757 113.103 152.401 112.511L154.113 111.891L153.915 111.282C153.639 110.433 153.263 109.903 152.788 109.693C152.313 109.483 151.74 109.488 151.068 109.706C150.535 109.88 150.055 110.127 149.627 110.449C149.194 110.758 148.802 111.082 148.45 111.421L147.528 110.333C147.893 109.947 148.353 109.573 148.908 109.21C149.459 108.835 150.064 108.54 150.723 108.325ZM152.988 113.603C151.737 114.067 150.922 114.556 150.543 115.072C150.177 115.584 150.099 116.163 150.309 116.81C150.495 117.38 150.802 117.743 151.231 117.898C151.673 118.049 152.166 118.035 152.712 117.858C153.574 117.577 154.214 117.109 154.632 116.455C155.045 115.787 155.091 114.959 154.769 113.97L154.472 113.057L152.988 113.603ZM160.198 105.22C160.972 104.968 161.679 104.857 162.319 104.887C162.956 104.904 163.499 105.064 163.948 105.366C164.393 105.656 164.708 106.086 164.894 106.657C165.096 107.278 165.086 107.828 164.863 108.307C164.636 108.774 164.252 109.187 163.71 109.545L163.734 109.621C164.177 109.603 164.603 109.64 165.011 109.732C165.42 109.823 165.779 110.001 166.089 110.264C166.412 110.524 166.658 110.913 166.827 111.433C167.009 111.991 167.015 112.55 166.847 113.109C166.691 113.665 166.333 114.181 165.773 114.658C165.226 115.13 164.452 115.529 163.45 115.856C162.968 116.012 162.497 116.138 162.037 116.231C161.589 116.321 161.172 116.373 160.784 116.387C160.408 116.397 160.065 116.376 159.753 116.323L159.264 114.82C159.761 114.883 160.328 114.902 160.965 114.877C161.615 114.848 162.288 114.719 162.985 114.492C163.493 114.327 163.93 114.122 164.299 113.876C164.68 113.625 164.952 113.34 165.115 113.021C165.273 112.689 165.282 112.308 165.142 111.877C165.014 111.484 164.803 111.202 164.509 111.031C164.211 110.848 163.825 110.763 163.353 110.776C162.893 110.786 162.334 110.898 161.675 111.112L160.305 111.558L159.86 110.189L160.963 109.83C161.838 109.545 162.498 109.204 162.943 108.806C163.397 108.392 163.532 107.9 163.346 107.329C163.189 106.847 162.868 106.552 162.384 106.443C161.913 106.33 161.303 106.395 160.555 106.639C159.997 106.821 159.521 107.039 159.127 107.293C158.742 107.531 158.331 107.84 157.894 108.22L156.871 107.081C157.338 106.663 157.851 106.299 158.409 105.991C158.968 105.683 159.564 105.426 160.198 105.22ZM170.505 108.953C170.542 109.067 170.589 109.234 170.647 109.454C170.713 109.656 170.779 109.88 170.844 110.125C170.906 110.358 170.965 110.584 171.023 110.803C171.076 111.01 171.117 111.179 171.146 111.31L173.824 100.995L175.878 100.326L179.196 110.519L177.637 111.027L175.681 105.017C175.615 104.815 175.528 104.548 175.421 104.219C175.326 103.885 175.234 103.558 175.143 103.236C175.048 102.903 174.981 102.651 174.94 102.482L172.293 112.767L170.22 113.441L166.902 103.248L168.48 102.734L170.505 108.953ZM182.997 97.7983C183.872 97.5135 184.682 97.4602 185.427 97.6383C186.185 97.8123 186.842 98.1943 187.398 98.7843C187.964 99.3575 188.397 100.107 188.698 101.032L189.026 102.04L182.047 104.312C182.448 105.458 183.026 106.244 183.782 106.671C184.547 107.081 185.436 107.121 186.45 106.791C187.097 106.581 187.649 106.338 188.106 106.063C188.572 105.771 189.034 105.424 189.492 105.023L189.969 106.487C189.523 106.884 189.064 107.216 188.589 107.483C188.119 107.762 187.536 108.015 186.838 108.242C185.875 108.556 184.955 108.638 184.079 108.488C183.216 108.335 182.449 107.939 181.779 107.302C181.117 106.648 180.603 105.757 180.236 104.628C179.872 103.513 179.745 102.496 179.852 101.577C179.973 100.655 180.299 99.8685 180.83 99.2187C181.375 98.5648 182.097 98.0913 182.997 97.7983ZM183.424 99.1738C182.625 99.4338 182.076 99.9 181.776 100.573C181.484 101.228 181.443 102.027 181.651 102.969L186.843 101.279C186.653 100.695 186.4 100.217 186.082 99.8439C185.764 99.4706 185.382 99.2234 184.936 99.1022C184.498 98.9642 183.994 98.988 183.424 99.1738Z" fill="#1D1D1D"/>
</g>
<g filter="url(#filter1_i_1206_284)">
<rect x="199.885" y="126.525" width="184" height="63" rx="11" transform="rotate(16.2752 199.885 126.525)" stroke="url(#paint1_linear_1206_284)" stroke-width="2"/>
<path d="M246.013 180.621L250.015 166.913L258.155 169.289L257.712 170.806L251.3 168.934L250.05 173.215L252.085 173.809C253.454 174.209 254.466 174.692 255.121 175.258C255.779 175.811 256.169 176.425 256.291 177.1C256.418 177.762 256.37 178.47 256.15 179.226C255.907 180.058 255.531 180.726 255.023 181.23C254.527 181.738 253.868 182.046 253.045 182.153C252.222 182.26 251.216 182.139 250.025 181.792L246.013 180.621ZM250.284 180.263C251.513 180.622 252.436 180.669 253.055 180.406C253.678 180.129 254.114 179.562 254.364 178.704C254.536 178.116 254.551 177.613 254.409 177.196C254.283 176.771 253.974 176.403 253.481 176.092C253.001 175.785 252.32 175.503 251.437 175.245L249.613 174.713L248.172 179.647L250.284 180.263ZM264.546 174.676C265.8 175.042 266.648 175.589 267.089 176.315C267.53 177.041 267.574 178.005 267.223 179.208L265.177 186.216L263.949 185.857L264.048 184.303L263.972 184.28C263.569 184.565 263.17 184.789 262.775 184.952C262.397 185.105 261.986 185.18 261.543 185.176C261.113 185.175 260.61 185.09 260.034 184.922C259.419 184.743 258.894 184.472 258.459 184.108C258.036 183.749 257.749 183.304 257.598 182.774C257.451 182.231 257.479 181.614 257.68 180.922C257.979 179.899 258.612 179.229 259.579 178.914C260.55 178.586 261.881 178.642 263.573 179.08L265.337 179.532L265.516 178.918C265.766 178.061 265.755 177.411 265.481 176.97C265.207 176.529 264.73 176.209 264.052 176.011C263.515 175.854 262.978 175.788 262.443 175.813C261.912 175.824 261.405 175.871 260.923 175.952L260.775 174.534C261.294 174.421 261.885 174.372 262.548 174.385C263.214 174.385 263.88 174.482 264.546 174.676ZM263.442 180.313C262.147 179.99 261.198 179.935 260.594 180.148C260.003 180.364 259.612 180.799 259.422 181.452C259.254 182.028 259.303 182.501 259.57 182.87C259.85 183.244 260.265 183.511 260.816 183.671C261.686 183.925 262.478 183.9 263.193 183.594C263.91 183.276 264.415 182.618 264.707 181.62L264.976 180.698L263.442 180.313ZM276.189 189.43L274.48 188.932L277.075 180.043L274.042 179.157C273.439 180.745 272.874 182.087 272.346 183.183C271.821 184.266 271.307 185.123 270.803 185.754C270.3 186.385 269.794 186.807 269.288 187.02C268.781 187.233 268.252 187.259 267.702 187.099C267.536 187.05 267.373 186.989 267.214 186.914C267.064 186.857 266.946 186.787 266.858 186.706L267.228 185.439C267.297 185.487 267.375 185.531 267.461 185.57C267.547 185.609 267.634 185.641 267.724 185.667C268.006 185.75 268.295 185.709 268.593 185.546C268.891 185.383 269.198 185.091 269.516 184.669C269.846 184.252 270.192 183.707 270.555 183.035C270.922 182.351 271.306 181.532 271.709 180.58C272.112 179.629 272.54 178.545 272.992 177.33L279.193 179.14L276.189 189.43ZM286.407 181.059C287.661 181.425 288.509 181.971 288.95 182.697C289.391 183.423 289.435 184.387 289.084 185.59L287.038 192.598L285.81 192.239L285.909 190.685L285.832 190.662C285.43 190.948 285.031 191.172 284.636 191.334C284.258 191.488 283.847 191.562 283.404 191.558C282.974 191.557 282.471 191.473 281.895 191.305C281.28 191.125 280.755 190.854 280.32 190.491C279.897 190.131 279.61 189.686 279.459 189.156C279.312 188.613 279.339 187.996 279.541 187.305C279.84 186.281 280.473 185.611 281.44 185.296C282.411 184.969 283.742 185.024 285.434 185.462L287.198 185.915L287.377 185.3C287.627 184.443 287.615 183.794 287.341 183.352C287.067 182.911 286.591 182.592 285.913 182.394C285.375 182.237 284.839 182.17 284.304 182.195C283.773 182.206 283.266 182.253 282.784 182.334L282.636 180.916C283.155 180.804 283.746 180.754 284.409 180.767C285.075 180.767 285.741 180.864 286.407 181.059ZM285.303 186.695C284.008 186.373 283.059 186.318 282.455 186.53C281.864 186.747 281.473 187.181 281.283 187.834C281.115 188.41 281.164 188.883 281.431 189.252C281.711 189.626 282.126 189.893 282.677 190.054C283.547 190.308 284.339 190.282 285.053 189.977C285.771 189.658 286.276 189 286.567 188.002L286.836 187.08L285.303 186.695ZM294.91 183.729L293.66 188.01L299.247 189.641L300.497 185.36L302.187 185.853L299.182 196.143L297.493 195.65L298.832 191.062L293.246 189.431L291.906 194.019L290.216 193.526L293.221 183.235L294.91 183.729ZM306.512 198.492C305.603 198.226 304.845 197.804 304.237 197.223C303.641 196.646 303.252 195.908 303.071 195.008C302.902 194.111 302.995 193.055 303.35 191.839C303.72 190.572 304.232 189.603 304.886 188.933C305.54 188.263 306.28 187.847 307.105 187.685C307.943 187.527 308.822 187.582 309.744 187.851C310.269 188.004 310.757 188.209 311.21 188.467C311.666 188.711 312.026 188.955 312.288 189.198L311.361 190.448C311.087 190.243 310.761 190.03 310.381 189.808C310.001 189.586 309.632 189.423 309.274 189.318C308.583 189.116 307.97 189.097 307.436 189.261C306.902 189.424 306.442 189.762 306.057 190.275C305.671 190.787 305.353 191.472 305.103 192.33C304.863 193.149 304.769 193.878 304.818 194.518C304.867 195.157 305.067 195.688 305.416 196.109C305.765 196.53 306.266 196.836 306.919 197.027C307.482 197.191 307.992 197.278 308.448 197.286C308.917 197.298 309.354 197.273 309.761 197.211L309.324 198.708C308.926 198.787 308.503 198.809 308.055 198.775C307.615 198.758 307.101 198.664 306.512 198.492Z" fill="#1D1D1D"/>
</g>
<g filter="url(#filter2_i_1206_284)">
<rect y="177.402" width="186" height="65" rx="12" fill="url(#paint2_linear_1206_284)"/>
<path d="M35.42 213.342C34.9933 214.289 34.56 215.082 34.12 215.722C33.6933 216.349 33.1867 216.822 32.6 217.142C32.0133 217.449 31.2667 217.602 30.36 217.602C29.9867 217.602 29.6333 217.576 29.3 217.522C28.98 217.469 28.6867 217.396 28.42 217.302V215.522C28.6867 215.642 28.9733 215.742 29.28 215.822C29.5867 215.889 29.9067 215.922 30.24 215.922C30.7333 215.922 31.1533 215.856 31.5 215.722C31.86 215.576 32.1733 215.342 32.44 215.022C32.72 214.702 32.98 214.276 33.22 213.742L27.72 203.122H29.7L33.68 210.982C33.7333 211.076 33.7867 211.189 33.84 211.322C33.8933 211.442 33.9467 211.569 34 211.702C34.0667 211.836 34.12 211.962 34.16 212.082H34.24C34.28 211.989 34.32 211.882 34.36 211.762C34.4133 211.629 34.46 211.502 34.5 211.382C34.5533 211.249 34.6 211.136 34.64 211.042L38.08 203.122H39.98L35.42 213.342ZM53.1805 206.682V217.402H51.6005V210.562C51.6005 210.282 51.6071 209.989 51.6205 209.682C51.6471 209.376 51.6738 209.076 51.7005 208.782H51.6405L48.1405 217.402H46.6605L43.2605 208.782H43.2005C43.2271 209.076 43.2405 209.376 43.2405 209.682C43.2538 209.989 43.2605 210.302 43.2605 210.622V217.402H41.6805V206.682H44.0205L47.4005 215.302L50.8405 206.682H53.1805ZM60.7423 206.482C61.6623 206.482 62.449 206.682 63.1023 207.082C63.769 207.482 64.2757 208.049 64.6223 208.782C64.9823 209.502 65.1623 210.349 65.1623 211.322V212.382H57.8223C57.849 213.596 58.1557 214.522 58.7423 215.162C59.3423 215.789 60.1757 216.102 61.2423 216.102C61.9223 216.102 62.5223 216.042 63.0423 215.922C63.5757 215.789 64.1223 215.602 64.6823 215.362V216.902C64.1357 217.142 63.5957 217.316 63.0623 217.422C62.529 217.542 61.8957 217.602 61.1623 217.602C60.149 217.602 59.249 217.396 58.4623 216.982C57.689 216.569 57.0823 215.956 56.6423 215.142C56.2157 214.316 56.0023 213.309 56.0023 212.122C56.0023 210.949 56.1957 209.942 56.5823 209.102C56.9823 208.262 57.5357 207.616 58.2423 207.162C58.9623 206.709 59.7957 206.482 60.7423 206.482ZM60.7223 207.922C59.8823 207.922 59.2157 208.196 58.7223 208.742C58.2423 209.276 57.9557 210.022 57.8623 210.982H63.3223C63.3223 210.369 63.229 209.836 63.0423 209.382C62.8557 208.929 62.569 208.576 62.1823 208.322C61.809 208.056 61.3223 207.922 60.7223 207.922ZM72.9914 206.482C74.3114 206.482 75.3714 206.942 76.1714 207.862C76.9847 208.782 77.3914 210.169 77.3914 212.022C77.3914 213.236 77.2047 214.262 76.8314 215.102C76.4714 215.929 75.9581 216.556 75.2914 216.982C74.6381 217.396 73.8647 217.602 72.9714 217.602C72.4247 217.602 71.9381 217.529 71.5114 217.382C71.0847 217.236 70.7181 217.049 70.4114 216.822C70.1181 216.582 69.8647 216.322 69.6514 216.042H69.5314C69.5581 216.269 69.5847 216.556 69.6114 216.902C69.6381 217.249 69.6514 217.549 69.6514 217.802V222.202H67.8914V206.682H69.3314L69.5714 208.142H69.6514C69.8647 207.836 70.1181 207.556 70.4114 207.302C70.7181 207.049 71.0781 206.849 71.4914 206.702C71.9181 206.556 72.4181 206.482 72.9914 206.482ZM72.6714 207.962C71.9514 207.962 71.3714 208.102 70.9314 208.382C70.4914 208.649 70.1714 209.056 69.9714 209.602C69.7714 210.149 69.6647 210.842 69.6514 211.682V212.022C69.6514 212.902 69.7447 213.649 69.9314 214.262C70.1181 214.876 70.4314 215.342 70.8714 215.662C71.3247 215.982 71.9381 216.142 72.7114 216.142C73.3647 216.142 73.8981 215.962 74.3114 215.602C74.7381 215.242 75.0514 214.756 75.2514 214.142C75.4647 213.516 75.5714 212.802 75.5714 212.002C75.5714 210.776 75.3314 209.796 74.8514 209.062C74.3847 208.329 73.6581 207.962 72.6714 207.962ZM84.3361 206.482C85.2561 206.482 86.0428 206.682 86.6961 207.082C87.3628 207.482 87.8694 208.049 88.2161 208.782C88.5761 209.502 88.7561 210.349 88.7561 211.322V212.382H81.4161C81.4428 213.596 81.7494 214.522 82.3361 215.162C82.9361 215.789 83.7694 216.102 84.8361 216.102C85.5161 216.102 86.1161 216.042 86.6361 215.922C87.1694 215.789 87.7161 215.602 88.2761 215.362V216.902C87.7294 217.142 87.1894 217.316 86.6561 217.422C86.1228 217.542 85.4894 217.602 84.7561 217.602C83.7428 217.602 82.8428 217.396 82.0561 216.982C81.2828 216.569 80.6761 215.956 80.2361 215.142C79.8094 214.316 79.5961 213.309 79.5961 212.122C79.5961 210.949 79.7894 209.942 80.1761 209.102C80.5761 208.262 81.1294 207.616 81.8361 207.162C82.5561 206.709 83.3894 206.482 84.3361 206.482ZM84.3161 207.922C83.4761 207.922 82.8094 208.196 82.3161 208.742C81.8361 209.276 81.5494 210.022 81.4561 210.982H86.9161C86.9161 210.369 86.8228 209.836 86.6361 209.382C86.4494 208.929 86.1628 208.576 85.7761 208.322C85.4028 208.056 84.9161 207.922 84.3161 207.922ZM93.2452 206.682V211.142H99.0652V206.682H100.825V217.402H99.0652V212.622H93.2452V217.402H91.4852V206.682H93.2452ZM105.98 206.682V211.142H111.8V206.682H113.56V217.402H111.8V212.622H105.98V217.402H104.22V206.682H105.98ZM126.274 212.022C126.274 212.916 126.154 213.709 125.914 214.402C125.687 215.082 125.354 215.662 124.914 216.142C124.487 216.622 123.961 216.989 123.334 217.242C122.721 217.482 122.034 217.602 121.274 217.602C120.567 217.602 119.914 217.482 119.314 217.242C118.714 216.989 118.194 216.622 117.754 216.142C117.314 215.662 116.967 215.082 116.714 214.402C116.474 213.709 116.354 212.916 116.354 212.022C116.354 210.836 116.554 209.836 116.954 209.022C117.354 208.196 117.927 207.569 118.674 207.142C119.421 206.702 120.307 206.482 121.334 206.482C122.307 206.482 123.161 206.702 123.894 207.142C124.641 207.569 125.221 208.196 125.634 209.022C126.061 209.836 126.274 210.836 126.274 212.022ZM118.174 212.022C118.174 212.862 118.281 213.596 118.494 214.222C118.721 214.836 119.067 215.309 119.534 215.642C120.001 215.976 120.594 216.142 121.314 216.142C122.034 216.142 122.627 215.976 123.094 215.642C123.561 215.309 123.901 214.836 124.114 214.222C124.341 213.596 124.454 212.862 124.454 212.022C124.454 211.169 124.341 210.442 124.114 209.842C123.887 209.242 123.541 208.782 123.074 208.462C122.621 208.129 122.027 207.962 121.294 207.962C120.201 207.962 119.407 208.322 118.914 209.042C118.421 209.762 118.174 210.756 118.174 212.022ZM133.363 217.602C132.417 217.602 131.57 217.409 130.823 217.022C130.09 216.636 129.51 216.036 129.083 215.222C128.67 214.409 128.463 213.369 128.463 212.102C128.463 210.782 128.683 209.709 129.123 208.882C129.563 208.056 130.157 207.449 130.903 207.062C131.663 206.676 132.523 206.482 133.483 206.482C134.03 206.482 134.557 206.542 135.063 206.662C135.57 206.769 135.983 206.902 136.303 207.062L135.763 208.522C135.443 208.402 135.07 208.289 134.643 208.182C134.217 208.076 133.817 208.022 133.443 208.022C132.723 208.022 132.13 208.176 131.663 208.482C131.197 208.789 130.85 209.242 130.623 209.842C130.397 210.442 130.283 211.189 130.283 212.082C130.283 212.936 130.397 213.662 130.623 214.262C130.85 214.862 131.19 215.316 131.643 215.622C132.097 215.929 132.663 216.082 133.343 216.082C133.93 216.082 134.443 216.022 134.883 215.902C135.337 215.782 135.75 215.636 136.123 215.462V217.022C135.763 217.209 135.363 217.349 134.923 217.442C134.497 217.549 133.977 217.602 133.363 217.602ZM146.073 208.162H142.573V217.402H140.833V208.162H137.373V206.682H146.073V208.162ZM153.124 211.082C154.058 211.082 154.831 211.196 155.444 211.422C156.058 211.649 156.518 211.989 156.824 212.442C157.144 212.882 157.304 213.442 157.304 214.122C157.304 214.789 157.151 215.369 156.844 215.862C156.551 216.356 156.091 216.736 155.464 217.002C154.838 217.269 154.031 217.402 153.044 217.402H148.184V206.682H149.944V211.082H153.124ZM155.544 214.222C155.544 213.569 155.311 213.129 154.844 212.902C154.391 212.662 153.751 212.542 152.924 212.542H149.944V215.982H152.964C153.711 215.982 154.324 215.849 154.804 215.582C155.298 215.316 155.544 214.862 155.544 214.222Z" fill="white"/>
</g>
<g filter="url(#filter3_i_1206_284)">
<rect x="376" y="178.402" width="184" height="63" rx="11" stroke="url(#paint3_linear_1206_284)" stroke-width="2"/>
<path d="M452.02 203.122C453.207 203.122 454.2 203.236 455 203.462C455.813 203.689 456.42 204.062 456.82 204.582C457.233 205.102 457.44 205.796 457.44 206.662C457.44 207.222 457.333 207.722 457.12 208.162C456.92 208.589 456.613 208.949 456.2 209.242C455.8 209.522 455.307 209.716 454.72 209.822V209.922C455.32 210.016 455.86 210.189 456.34 210.442C456.833 210.696 457.22 211.056 457.5 211.522C457.78 211.989 457.92 212.596 457.92 213.342C457.92 214.209 457.72 214.949 457.32 215.562C456.92 216.162 456.347 216.622 455.6 216.942C454.867 217.249 453.987 217.402 452.96 217.402H447.94V203.122H452.02ZM452.38 209.202C453.607 209.202 454.447 209.009 454.9 208.622C455.353 208.222 455.58 207.636 455.58 206.862C455.58 206.076 455.3 205.516 454.74 205.182C454.193 204.836 453.313 204.662 452.1 204.662H449.74V209.202H452.38ZM449.74 210.702V215.882H452.62C453.887 215.882 454.767 215.636 455.26 215.142C455.753 214.649 456 214.002 456 213.202C456 212.696 455.887 212.256 455.66 211.882C455.447 211.509 455.08 211.222 454.56 211.022C454.053 210.809 453.36 210.702 452.48 210.702H449.74ZM467.048 206.682H468.968L464.388 211.842L469.348 217.402H467.308L462.468 211.962V217.402H460.708V206.682H462.468V211.882L467.048 206.682ZM469.614 206.682H471.494L473.814 212.782C473.947 213.142 474.067 213.489 474.174 213.822C474.294 214.156 474.4 214.482 474.494 214.802C474.587 215.109 474.66 215.409 474.714 215.702H474.794C474.874 215.369 475 214.936 475.174 214.402C475.347 213.856 475.527 213.309 475.714 212.762L477.894 206.682H479.794L475.174 218.882C474.92 219.549 474.62 220.129 474.274 220.622C473.94 221.129 473.527 221.516 473.034 221.782C472.554 222.062 471.967 222.202 471.274 222.202C470.954 222.202 470.674 222.182 470.434 222.142C470.194 222.116 469.987 222.082 469.814 222.042V220.642C469.96 220.669 470.134 220.696 470.334 220.722C470.547 220.749 470.767 220.762 470.994 220.762C471.407 220.762 471.76 220.682 472.054 220.522C472.36 220.376 472.62 220.156 472.834 219.862C473.047 219.582 473.227 219.249 473.374 218.862L473.934 217.442L469.614 206.682ZM485.789 217.602C484.842 217.602 483.996 217.409 483.249 217.022C482.516 216.636 481.936 216.036 481.509 215.222C481.096 214.409 480.889 213.369 480.889 212.102C480.889 210.782 481.109 209.709 481.549 208.882C481.989 208.056 482.582 207.449 483.329 207.062C484.089 206.676 484.949 206.482 485.909 206.482C486.456 206.482 486.982 206.542 487.489 206.662C487.996 206.769 488.409 206.902 488.729 207.062L488.189 208.522C487.869 208.402 487.496 208.289 487.069 208.182C486.642 208.076 486.242 208.022 485.869 208.022C485.149 208.022 484.556 208.176 484.089 208.482C483.622 208.789 483.276 209.242 483.049 209.842C482.822 210.442 482.709 211.189 482.709 212.082C482.709 212.936 482.822 213.662 483.049 214.262C483.276 214.862 483.616 215.316 484.069 215.622C484.522 215.929 485.089 216.082 485.769 216.082C486.356 216.082 486.869 216.022 487.309 215.902C487.762 215.782 488.176 215.636 488.549 215.462V217.022C488.189 217.209 487.789 217.349 487.349 217.442C486.922 217.549 486.402 217.602 485.789 217.602Z" fill="#1D1D1D"/>
</g>
<g filter="url(#filter4_i_1206_284)">
<rect x="369.674" y="41" width="186" height="65" rx="12" transform="rotate(26.3144 369.674 41)" fill="url(#paint4_linear_1206_284)"/>
<path d="M389.017 95.1897L387.403 94.3918L390.356 88.4219L383.794 85.177L380.842 91.1468L379.228 90.3489L385.559 77.5487L387.172 78.3466L384.495 83.7607L391.056 87.0056L393.733 81.5915L395.347 82.3895L389.017 95.1897ZM400.772 88.8433C401.944 89.4226 402.683 90.108 402.991 90.8998C403.298 91.6915 403.174 92.6491 402.619 93.7725L399.383 100.316L398.235 99.7487L398.604 98.2354L398.533 98.2C398.086 98.4106 397.655 98.5616 397.238 98.6529C396.838 98.7381 396.421 98.7399 395.985 98.6583C395.562 98.5827 395.081 98.4119 394.543 98.1459C393.969 97.8622 393.5 97.5035 393.134 97.0698C392.78 96.642 392.576 96.1539 392.52 95.6056C392.469 95.0453 392.604 94.4424 392.923 93.7971C393.396 92.8409 394.136 92.2921 395.143 92.1505C396.156 91.997 397.457 92.2835 399.046 93.01L400.704 93.763L400.988 93.1893C401.384 92.3886 401.486 91.7471 401.293 91.265C401.1 90.7828 400.687 90.3851 400.053 90.0718C399.551 89.8236 399.035 89.6649 398.504 89.5956C397.979 89.5144 397.472 89.4719 396.983 89.4681L397.084 88.0455C397.614 88.0253 398.205 88.0794 398.856 88.2077C399.512 88.3241 400.151 88.536 400.772 88.8433ZM398.703 94.2011C397.484 93.6578 396.559 93.4383 395.927 93.5424C395.308 93.6525 394.847 94.0123 394.546 94.6218C394.28 95.1596 394.246 95.6338 394.444 96.0444C394.655 96.4609 395.017 96.7962 395.531 97.0503C396.344 97.4523 397.128 97.5651 397.885 97.3889C398.647 97.2007 399.259 96.6405 399.72 95.7082L400.146 94.8477L398.703 94.2011ZM413.08 96.7817L409.942 95.2301L405.846 103.513L404.287 102.741L408.383 94.4588L405.281 92.925L405.937 91.5984L413.736 95.455L413.08 96.7817ZM414.123 95.6464L415.808 96.4798L415.183 102.976C415.143 103.358 415.097 103.722 415.045 104.068C415.005 104.42 414.956 104.76 414.897 105.088C414.845 105.405 414.778 105.706 414.696 105.993L414.767 106.028C414.987 105.765 415.292 105.432 415.684 105.031C416.082 104.618 416.486 104.208 416.895 103.8L421.545 99.3169L423.248 100.159L413.698 109.047C413.176 109.532 412.65 109.919 412.12 110.208C411.597 110.514 411.055 110.677 410.495 110.698C409.94 110.736 409.352 110.601 408.731 110.294C408.444 110.152 408.202 110.01 408.004 109.868C407.801 109.738 407.631 109.616 407.493 109.503L408.114 108.248C408.233 108.337 408.377 108.438 408.544 108.551C408.724 108.669 408.915 108.779 409.118 108.879C409.489 109.062 409.841 109.147 410.175 109.134C410.515 109.138 410.845 109.056 411.166 108.888C411.482 108.732 411.791 108.513 412.094 108.231L413.225 107.206L414.123 95.6464ZM429.428 102.992C430.611 103.577 431.357 104.46 431.666 105.639C431.988 106.824 431.737 108.247 430.916 109.909C430.378 110.996 429.755 111.834 429.048 112.421C428.359 113.003 427.621 113.337 426.835 113.424C426.066 113.505 425.281 113.347 424.48 112.951C423.99 112.709 423.586 112.427 423.269 112.107C422.952 111.786 422.706 111.456 422.531 111.117C422.375 110.772 422.263 110.427 422.196 110.081L422.088 110.028C422.012 110.243 421.908 110.512 421.779 110.834C421.649 111.157 421.528 111.432 421.416 111.659L419.465 115.603L417.887 114.822L424.767 100.911L426.058 101.549L425.626 102.964L425.698 103C426.025 102.819 426.376 102.681 426.751 102.584C427.139 102.492 427.55 102.473 427.986 102.525C428.433 102.582 428.914 102.738 429.428 102.992ZM428.485 104.177C427.839 103.858 427.257 103.726 426.739 103.782C426.226 103.826 425.759 104.049 425.337 104.45C424.916 104.852 424.513 105.426 424.129 106.173L423.978 106.478C423.588 107.266 423.34 107.977 423.236 108.61C423.131 109.242 423.205 109.799 423.458 110.281C423.722 110.769 424.201 111.184 424.894 111.527C425.48 111.817 426.038 111.892 426.568 111.752C427.11 111.619 427.607 111.321 428.058 110.86C428.527 110.393 428.939 109.801 429.293 109.084C429.837 107.984 430.056 107 429.951 106.129C429.858 105.265 429.369 104.614 428.485 104.177ZM439.516 108.004C440.687 108.583 441.427 109.268 441.734 110.06C442.042 110.852 441.918 111.81 441.362 112.933L438.126 119.477L436.979 118.909L437.348 117.396L437.276 117.36C436.83 117.571 436.398 117.722 435.981 117.813C435.582 117.899 435.165 117.9 434.729 117.819C434.305 117.743 433.825 117.572 433.287 117.306C432.713 117.023 432.243 116.664 431.878 116.23C431.524 115.802 431.319 115.314 431.263 114.766C431.213 114.206 431.348 113.603 431.667 112.958C432.14 112.001 432.88 111.453 433.887 111.311C434.9 111.157 436.201 111.444 437.79 112.17L439.448 112.923L439.732 112.35C440.128 111.549 440.229 110.908 440.037 110.425C439.844 109.943 439.43 109.546 438.797 109.232C438.295 108.984 437.779 108.825 437.248 108.756C436.722 108.675 436.215 108.632 435.726 108.629L435.828 107.206C436.358 107.186 436.949 107.24 437.599 107.368C438.256 107.485 438.895 107.696 439.516 108.004ZM437.447 113.362C436.228 112.818 435.303 112.599 434.671 112.703C434.051 112.813 433.591 113.173 433.289 113.782C433.023 114.32 432.99 114.794 433.188 115.205C433.399 115.621 433.761 115.957 434.275 116.211C435.088 116.613 435.872 116.726 436.629 116.549C437.391 116.361 438.003 115.801 438.464 114.869L438.889 114.008L437.447 113.362ZM448.409 124.562L446.813 123.772L450.918 115.472L448.085 114.071C447.215 115.53 446.425 116.753 445.713 117.74C445.008 118.715 444.352 119.469 443.746 120.002C443.141 120.536 442.57 120.863 442.033 120.985C441.497 121.106 440.972 121.04 440.458 120.786C440.303 120.709 440.154 120.62 440.01 120.52C439.872 120.437 439.768 120.348 439.696 120.253L440.281 119.069C440.341 119.129 440.41 119.185 440.487 119.239C440.565 119.292 440.646 119.339 440.729 119.381C440.992 119.511 441.285 119.521 441.606 119.413C441.928 119.304 442.281 119.07 442.667 118.71C443.065 118.357 443.502 117.881 443.976 117.282C444.456 116.672 444.978 115.933 445.541 115.066C446.103 114.199 446.713 113.207 447.37 112.089L453.161 114.952L448.409 124.562ZM458.688 122.595C459.525 123.008 460.168 123.453 460.617 123.928C461.066 124.403 461.328 124.912 461.402 125.454C461.494 125.99 461.389 126.563 461.087 127.173C460.792 127.77 460.397 128.222 459.904 128.528C459.422 128.841 458.841 128.977 458.161 128.939C457.481 128.9 456.699 128.662 455.815 128.224L451.458 126.07L456.211 116.461L457.788 117.241L455.838 121.185L458.688 122.595ZM459.465 126.482C459.755 125.896 459.741 125.399 459.423 124.989C459.123 124.572 458.603 124.181 457.862 123.815L455.19 122.494L453.666 125.577L456.373 126.916C457.042 127.247 457.651 127.399 458.199 127.373C458.76 127.353 459.182 127.056 459.465 126.482ZM468.433 122.505L466.456 126.503L471.672 129.083L473.65 125.085L475.227 125.865L470.475 135.474L468.897 134.694L471.016 130.41L465.799 127.83L463.681 132.114L462.103 131.334L466.855 121.725L468.433 122.505ZM484.257 136.288C483.861 137.089 483.402 137.747 482.879 138.262C482.374 138.771 481.819 139.143 481.211 139.378C480.616 139.619 479.982 139.715 479.307 139.664C478.651 139.607 477.983 139.41 477.301 139.073C476.668 138.76 476.135 138.363 475.704 137.882C475.279 137.389 474.975 136.83 474.793 136.204C474.612 135.579 474.558 134.905 474.632 134.184C474.725 133.456 474.969 132.691 475.365 131.891C475.891 130.827 476.513 130.019 477.233 129.467C477.958 128.904 478.749 128.596 479.608 128.545C480.472 128.481 481.364 128.677 482.285 129.132C483.157 129.564 483.824 130.139 484.287 130.859C484.767 131.572 485.009 132.391 485.013 133.315C485.035 134.233 484.783 135.224 484.257 136.288ZM476.996 132.697C476.624 133.45 476.394 134.155 476.308 134.811C476.239 135.462 476.34 136.04 476.611 136.545C476.881 137.051 477.339 137.463 477.984 137.782C478.63 138.102 479.236 138.215 479.802 138.123C480.368 138.031 480.882 137.758 481.345 137.303C481.826 136.841 482.253 136.234 482.625 135.481C483.004 134.716 483.224 134.015 483.287 133.377C483.35 132.738 483.243 132.172 482.967 131.678C482.708 131.179 482.25 130.766 481.593 130.441C480.613 129.957 479.742 129.928 478.981 130.354C478.219 130.781 477.558 131.562 476.996 132.697ZM492.924 134.394C493.749 134.802 494.365 135.33 494.773 135.978C495.194 136.632 495.397 137.365 495.382 138.176C495.386 138.981 495.172 139.819 494.74 140.692L494.271 141.642L487.691 138.388C487.177 139.488 487.041 140.454 487.283 141.288C487.543 142.116 488.152 142.766 489.108 143.239C489.717 143.54 490.282 143.752 490.801 143.875C491.338 143.992 491.911 144.067 492.519 144.1L491.837 145.481C491.24 145.454 490.679 145.37 490.154 145.229C489.623 145.1 489.028 144.873 488.371 144.548C487.463 144.099 486.748 143.514 486.226 142.795C485.716 142.082 485.444 141.263 485.41 140.339C485.394 139.409 485.649 138.412 486.175 137.348C486.695 136.297 487.315 135.48 488.034 134.898C488.765 134.323 489.547 133.988 490.382 133.895C491.228 133.808 492.075 133.974 492.924 134.394ZM492.268 135.676C491.515 135.304 490.796 135.253 490.111 135.524C489.445 135.79 488.857 136.332 488.348 137.151L493.242 139.571C493.514 139.022 493.666 138.502 493.7 138.013C493.734 137.524 493.633 137.08 493.399 136.682C493.183 136.277 492.806 135.942 492.268 135.676Z" fill="white"/>
</g>
<g filter="url(#filter5_i_1206_284)">
<rect x="221.748" y="1.40596" width="184" height="63" rx="11" transform="rotate(38.8065 221.748 1.40596)" stroke="url(#paint5_linear_1206_284)" stroke-width="2"/>
<path d="M237.988 46.1883C239.442 47.3581 240.272 48.4962 240.478 49.6024C240.683 50.7087 240.368 51.7813 239.532 52.8203C239.165 53.2775 238.732 53.6564 238.233 53.9571C237.754 54.2557 237.209 54.4334 236.598 54.4901C235.988 54.5469 235.318 54.4442 234.588 54.182C233.866 53.9094 233.089 53.4389 232.258 52.7705L230.98 51.7427L227.496 56.0754L226.093 54.9474L235.042 43.8194L237.988 46.1883ZM236.898 47.2881L235.48 46.1475L231.945 50.5426L233.067 51.4451C233.774 52.0133 234.419 52.4126 235.004 52.6432C235.597 52.8633 236.141 52.8991 236.637 52.7504C237.133 52.6018 237.598 52.2573 238.033 51.717C238.609 51.0001 238.811 50.2812 238.638 49.5602C238.465 48.8393 237.885 48.0819 236.898 47.2881ZM245.412 56.4707C246.129 57.0473 246.617 57.6961 246.875 58.4173C247.144 59.1468 247.184 59.9059 246.994 60.6946C246.823 61.4813 246.433 62.2539 245.823 63.0123L245.159 63.8384L239.439 59.2384C238.699 60.2007 238.358 61.115 238.414 61.9814C238.489 62.8457 238.942 63.6121 239.773 64.2806C240.303 64.7068 240.808 65.036 241.288 65.2684C241.787 65.4987 242.33 65.6958 242.917 65.8598L241.952 67.0598C241.376 66.9043 240.846 66.7009 240.364 66.4498C239.873 66.2091 239.342 65.8589 238.77 65.3994C237.981 64.7643 237.409 64.0393 237.055 63.2242C236.711 62.4174 236.623 61.5593 236.79 60.6497C236.975 59.7381 237.44 58.82 238.184 57.8953C238.919 56.9809 239.701 56.3176 240.528 55.9054C241.366 55.5014 242.203 55.3443 243.038 55.4339C243.883 55.5318 244.674 55.8774 245.412 56.4707ZM244.494 57.5803C243.839 57.0539 243.149 56.8491 242.421 56.9659C241.713 57.0807 241.022 57.4829 240.348 58.1725L244.602 61.5943C244.987 61.1163 245.248 60.6422 245.387 60.172C245.525 59.7017 245.524 59.2467 245.381 58.807C245.257 58.3652 244.961 57.9563 244.494 57.5803ZM255.954 65.2054L255.027 66.3587L251.302 63.3631L245.511 70.5635L244.139 69.4606L250.858 61.1068L255.954 65.2054ZM256.291 65.4763L257.756 66.6545L255.741 72.862C255.619 73.2261 255.496 73.5714 255.37 73.898C255.254 74.233 255.133 74.5544 255.005 74.8622C254.886 75.1597 254.755 75.4394 254.612 75.7015L254.675 75.7516C254.946 75.542 255.316 75.2837 255.786 74.9767C256.263 74.6593 256.746 74.3461 257.234 74.0371L262.743 70.6653L264.224 71.8561L252.978 78.4678C252.363 78.8285 251.766 79.0925 251.186 79.2597C250.609 79.4456 250.045 79.4879 249.493 79.3866C248.943 79.3039 248.399 79.0454 247.858 78.6109C247.609 78.4103 247.403 78.2193 247.241 78.0377C247.071 77.8665 246.931 77.711 246.821 77.5712L247.698 76.4802C247.796 76.5929 247.914 76.7223 248.053 76.8685C248.203 77.0229 248.366 77.1712 248.543 77.3133C248.865 77.5723 249.19 77.7314 249.519 77.7905C249.85 77.8684 250.19 77.8599 250.54 77.765C250.882 77.6805 251.231 77.5336 251.588 77.3242L252.914 76.5686L256.291 65.4763ZM264.881 86.1412L263.494 85.0257L269.297 77.8097L266.835 75.8294C265.67 77.0654 264.633 78.0883 263.725 78.898C262.826 79.6974 262.023 80.292 261.316 80.6816C260.609 81.0713 259.981 81.2675 259.431 81.2703C258.881 81.273 258.383 81.0948 257.936 80.7355C257.801 80.6268 257.674 80.5078 257.556 80.3784C257.44 80.2677 257.356 80.1582 257.307 80.0498L258.134 79.0212C258.18 79.0921 258.235 79.162 258.299 79.2309C258.363 79.2997 258.432 79.3634 258.505 79.4219C258.733 79.6057 259.016 79.6794 259.354 79.6427C259.691 79.6061 260.087 79.4541 260.542 79.1866C261.007 78.9275 261.536 78.5572 262.128 78.0756C262.729 77.5836 263.398 76.9752 264.135 76.2504C264.872 75.5255 265.682 74.6884 266.565 73.7391L271.599 77.7875L264.881 86.1412ZM268.047 88.6872L266.457 87.4087L271.662 85.8197C271.407 85.4775 271.2 85.097 271.04 84.678C270.889 84.2487 270.85 83.7978 270.922 83.3253C271.002 82.8424 271.239 82.3567 271.632 81.8684C272.275 81.0684 273.034 80.6778 273.908 80.6967C274.791 80.7052 275.68 81.0687 276.573 81.7874L280.314 84.7955L273.595 93.1492L272.224 92.0462L274.894 88.7266L272.868 87.0972L268.047 88.6872ZM272.944 82.9494C272.559 83.4273 272.448 83.9278 272.609 84.4509C272.789 84.972 273.201 85.4915 273.845 86.0096L275.809 87.5888L278.027 84.8302L275.798 83.0379C275.165 82.5282 274.607 82.2852 274.126 82.309C273.655 82.3411 273.261 82.5545 272.944 82.9494ZM287.056 89.9614C288.085 90.7886 288.623 91.8114 288.67 93.0297C288.727 94.2563 288.175 95.5917 287.013 97.036C286.253 97.9815 285.464 98.6646 284.647 99.0852C283.848 99.5038 283.055 99.6704 282.268 99.5851C281.5 99.4978 280.768 99.1742 280.072 98.6143C279.646 98.2717 279.313 97.9096 279.072 97.5279C278.832 97.1462 278.663 96.771 278.566 96.4022C278.488 96.0313 278.453 95.6699 278.462 95.3181L278.369 95.2428C278.248 95.4362 278.089 95.6763 277.892 95.9632C277.696 96.25 277.518 96.4921 277.359 96.6896L274.602 100.118L273.23 99.0154L282.957 86.9211L284.079 87.8236L283.351 89.1117L283.413 89.1618C283.772 89.0566 284.145 88.9971 284.532 88.9835C284.93 88.9783 285.336 89.0481 285.75 89.1928C286.174 89.3459 286.61 89.6021 287.056 89.9614ZM285.879 90.9142C285.318 90.463 284.779 90.2086 284.26 90.151C283.75 90.0831 283.246 90.1995 282.748 90.5001C282.249 90.8008 281.732 91.2742 281.195 91.9204L280.982 92.1854C280.43 92.8712 280.035 93.5115 279.796 94.1064C279.557 94.7014 279.509 95.2614 279.651 95.7865C279.804 96.32 280.182 96.829 280.784 97.3137C281.293 97.7231 281.822 97.9171 282.37 97.8956C282.928 97.8824 283.477 97.6995 284.017 97.3469C284.576 96.9923 285.106 96.5032 285.608 95.8798C286.376 94.9239 286.803 94.0098 286.889 93.1376C286.985 92.2736 286.648 91.5325 285.879 90.9142ZM293.917 95.7354L291.122 99.2109L295.657 102.858L298.452 99.3827L299.824 100.486L293.106 108.839L291.734 107.736L294.73 104.012L290.194 100.364L287.199 104.089L285.827 102.986L292.545 94.6324L293.917 95.7354ZM306.385 112.615C305.825 113.311 305.235 113.854 304.613 114.244C304.01 114.632 303.387 114.875 302.743 114.973C302.11 115.08 301.47 115.036 300.823 114.84C300.194 114.643 299.584 114.306 298.992 113.83C298.441 113.387 298.007 112.884 297.69 112.321C297.381 111.748 297.206 111.136 297.164 110.486C297.122 109.836 297.215 109.167 297.444 108.478C297.691 107.788 298.095 107.094 298.655 106.398C299.398 105.473 300.181 104.82 301.002 104.436C301.832 104.043 302.672 103.914 303.521 104.049C304.379 104.174 305.207 104.559 306.007 105.202C306.766 105.812 307.293 106.518 307.589 107.321C307.903 108.121 307.962 108.973 307.766 109.876C307.589 110.777 307.129 111.69 306.385 112.615ZM300.073 107.539C299.547 108.193 299.17 108.832 298.944 109.454C298.736 110.074 298.709 110.66 298.864 111.212C299.019 111.764 299.377 112.266 299.938 112.717C300.499 113.168 301.066 113.41 301.638 113.443C302.211 113.476 302.773 113.32 303.323 112.976C303.893 112.629 304.44 112.129 304.967 111.474C305.502 110.809 305.869 110.172 306.068 109.563C306.267 108.953 306.286 108.377 306.122 107.835C305.978 107.291 305.62 106.79 305.049 106.33C304.197 105.645 303.353 105.428 302.517 105.68C301.682 105.932 300.867 106.552 300.073 107.539ZM315.257 112.64C315.974 113.217 316.461 113.866 316.72 114.587C316.989 115.316 317.028 116.076 316.839 116.864C316.668 117.651 316.278 118.424 315.668 119.182L315.004 120.008L309.284 115.408C308.544 116.37 308.203 117.285 308.259 118.151C308.333 119.015 308.786 119.782 309.618 120.45C310.148 120.876 310.653 121.206 311.133 121.438C311.632 121.668 312.175 121.866 312.762 122.029L311.797 123.23C311.221 123.074 310.691 122.871 310.209 122.62C309.718 122.379 309.187 122.029 308.615 121.569C307.826 120.934 307.254 120.209 306.9 119.394C306.556 118.587 306.468 117.729 306.635 116.819C306.82 115.908 307.285 114.99 308.029 114.065C308.764 113.151 309.545 112.487 310.373 112.075C311.211 111.671 312.048 111.514 312.882 111.604C313.728 111.702 314.519 112.047 315.257 112.64ZM314.339 113.75C313.684 113.224 312.993 113.019 312.266 113.136C311.558 113.25 310.867 113.653 310.192 114.342L314.447 117.764C314.832 117.286 315.093 116.812 315.232 116.342C315.37 115.871 315.368 115.416 315.226 114.977C315.102 114.535 314.806 114.126 314.339 113.75Z" fill="#1D1D1D"/>
</g>
<defs>
<filter id="filter0_i_1206_284" x="24.6467" y="61.1895" width="196.985" height="119.381" filterUnits="userSpaceOnUse" color-interpolation-filters="sRGB">
<feFlood flood-opacity="0" result="BackgroundImageFix"/>
<feBlend mode="normal" in="SourceGraphic" in2="BackgroundImageFix" result="shape"/>
<feColorMatrix in="SourceAlpha" type="matrix" values="0 0 0 0 0 0 0 0 0 0 0 0 0 0 0 0 0 0 127 0" result="hardAlpha"/>
<feOffset/>
<feGaussianBlur stdDeviation="12.8"/>
<feComposite in2="hardAlpha" operator="arithmetic" k2="-1" k3="1"/>
<feColorMatrix type="matrix" values="0 0 0 0 1 0 0 0 0 1 0 0 0 0 1 0 0 0 0.26 0"/>
<feBlend mode="normal" in2="shape" result="effect1_innerShadow_1206_284"/>
</filter>
<filter id="filter1_i_1206_284" x="180.989" y="125.285" width="196.763" height="114.522" filterUnits="userSpaceOnUse" color-interpolation-filters="sRGB">
<feFlood flood-opacity="0" result="BackgroundImageFix"/>
<feBlend mode="normal" in="SourceGraphic" in2="BackgroundImageFix" result="shape"/>
<feColorMatrix in="SourceAlpha" type="matrix" values="0 0 0 0 0 0 0 0 0 0 0 0 0 0 0 0 0 0 127 0" result="hardAlpha"/>
<feOffset/>
<feGaussianBlur stdDeviation="12.8"/>
<feComposite in2="hardAlpha" operator="arithmetic" k2="-1" k3="1"/>
<feColorMatrix type="matrix" values="0 0 0 0 1 0 0 0 0 1 0 0 0 0 1 0 0 0 0.26 0"/>
<feBlend mode="normal" in2="shape" result="effect1_innerShadow_1206_284"/>
</filter>
<filter id="filter2_i_1206_284" x="0" y="177.402" width="186" height="65" filterUnits="userSpaceOnUse" color-interpolation-filters="sRGB">
<feFlood flood-opacity="0" result="BackgroundImageFix"/>
<feBlend mode="normal" in="SourceGraphic" in2="BackgroundImageFix" result="shape"/>
<feColorMatrix in="SourceAlpha" type="matrix" values="0 0 0 0 0 0 0 0 0 0 0 0 0 0 0 0 0 0 127 0" result="hardAlpha"/>
<feOffset/>
<feGaussianBlur stdDeviation="12.8"/>
<feComposite in2="hardAlpha" operator="arithmetic" k2="-1" k3="1"/>
<feColorMatrix type="matrix" values="0 0 0 0 1 0 0 0 0 1 0 0 0 0 1 0 0 0 0.26 0"/>
<feBlend mode="normal" in2="shape" result="effect1_innerShadow_1206_284"/>
</filter>
<filter id="filter3_i_1206_284" x="375" y="177.402" width="186" height="65" filterUnits="userSpaceOnUse" color-interpolation-filters="sRGB">
<feFlood flood-opacity="0" result="BackgroundImageFix"/>
<feBlend mode="normal" in="SourceGraphic" in2="BackgroundImageFix" result="shape"/>
<feColorMatrix in="SourceAlpha" type="matrix" values="0 0 0 0 0 0 0 0 0 0 0 0 0 0 0 0 0 0 127 0" result="hardAlpha"/>
<feOffset/>
<feGaussianBlur stdDeviation="12.8"/>
<feComposite in2="hardAlpha" operator="arithmetic" k2="-1" k3="1"/>
<feColorMatrix type="matrix" values="0 0 0 0 1 0 0 0 0 1 0 0 0 0 1 0 0 0 0.26 0"/>
<feBlend mode="normal" in2="shape" result="effect1_innerShadow_1206_284"/>
</filter>
<filter id="filter4_i_1206_284" x="340.86" y="41" width="195.54" height="140.718" filterUnits="userSpaceOnUse" color-interpolation-filters="sRGB">
<feFlood flood-opacity="0" result="BackgroundImageFix"/>
<feBlend mode="normal" in="SourceGraphic" in2="BackgroundImageFix" result="shape"/>
<feColorMatrix in="SourceAlpha" type="matrix" values="0 0 0 0 0 0 0 0 0 0 0 0 0 0 0 0 0 0 127 0" result="hardAlpha"/>
<feOffset/>
<feGaussianBlur stdDeviation="12.8"/>
<feComposite in2="hardAlpha" operator="arithmetic" k2="-1" k3="1"/>
<feColorMatrix type="matrix" values="0 0 0 0 1 0 0 0 0 1 0 0 0 0 1 0 0 0 0.26 0"/>
<feBlend mode="normal" in2="shape" result="effect1_innerShadow_1206_284"/>
</filter>
<filter id="filter5_i_1206_284" x="180.86" y="0" width="185.679" height="167.217" filterUnits="userSpaceOnUse" color-interpolation-filters="sRGB">
<feFlood flood-opacity="0" result="BackgroundImageFix"/>
<feBlend mode="normal" in="SourceGraphic" in2="BackgroundImageFix" result="shape"/>
<feColorMatrix in="SourceAlpha" type="matrix" values="0 0 0 0 0 0 0 0 0 0 0 0 0 0 0 0 0 0 127 0" result="hardAlpha"/>
<feOffset/>
<feGaussianBlur stdDeviation="12.8"/>
<feComposite in2="hardAlpha" operator="arithmetic" k2="-1" k3="1"/>
<feColorMatrix type="matrix" values="0 0 0 0 1 0 0 0 0 1 0 0 0 0 1 0 0 0 0.26 0"/>
<feBlend mode="normal" in2="shape" result="effect1_innerShadow_1206_284"/>
</filter>
<linearGradient id="paint0_linear_1206_284" x1="-50.7797" y1="99.9859" x2="-9.5967" y2="268.435" gradientUnits="userSpaceOnUse">
<stop stop-color="#EA543C"/>
<stop offset="1" stop-color="#C5AA24"/>
</linearGradient>
<linearGradient id="paint1_linear_1206_284" x1="123.778" y1="106.508" x2="164.961" y2="274.957" gradientUnits="userSpaceOnUse">
<stop stop-color="#EA543C"/>
<stop offset="1" stop-color="#C5AA24"/>
</linearGradient>
<linearGradient id="paint2_linear_1206_284" x1="-75.4264" y1="158.625" x2="-25.3895" y2="345.328" gradientUnits="userSpaceOnUse">
<stop stop-color="#34BCA6"/>
<stop offset="1" stop-color="#C5AA24"/>
</linearGradient>
<linearGradient id="paint3_linear_1206_284" x1="299.574" y1="158.625" x2="340.757" y2="327.075" gradientUnits="userSpaceOnUse">
<stop stop-color="#EA543C"/>
<stop offset="1" stop-color="#C5AA24"/>
</linearGradient>
<linearGradient id="paint4_linear_1206_284" x1="294.248" y1="22.2232" x2="344.285" y2="208.926" gradientUnits="userSpaceOnUse">
<stop stop-color="#34BCA6"/>
<stop offset="1" stop-color="#C5AA24"/>
</linearGradient>
<linearGradient id="paint5_linear_1206_284" x1="146.169" y1="-18.7768" x2="187.352" y2="149.672" gradientUnits="userSpaceOnUse">
<stop stop-color="#EA543C"/>
<stop offset="1" stop-color="#C5AA24"/>
</linearGradient>
</defs>
</svg>
