<svg width="495" height="288" viewBox="0 0 495 288" fill="none" xmlns="http://www.w3.org/2000/svg">
<rect y="223.517" width="186" height="64.4838" rx="12" fill="white"/>
<path d="M62.6534 254.889V256.452H56.6591V254.889H62.6534ZM53.1932 258.213H55.0114C55.1676 259.236 55.5133 260.022 56.0483 260.571C56.5833 261.121 57.4403 261.395 58.6193 261.395C59.4527 261.395 60.1487 261.161 60.7074 260.692C61.2708 260.223 61.6922 259.603 61.9716 258.831C62.2557 258.059 62.3977 257.219 62.3977 256.31V254.691C62.3977 253.687 62.2391 252.804 61.9219 252.041C61.6094 251.274 61.1572 250.678 60.5653 250.252C59.9782 249.821 59.2727 249.605 58.4489 249.605C57.7292 249.605 57.1326 249.733 56.6591 249.989C56.1856 250.245 55.8163 250.612 55.5511 251.09C55.286 251.568 55.1061 252.143 55.0114 252.816H53.1932C53.2879 251.888 53.5412 251.064 53.9531 250.344C54.3698 249.62 54.9498 249.051 55.6932 248.639C56.4413 248.223 57.3598 248.014 58.4489 248.014C59.6326 248.014 60.6553 248.291 61.517 248.845C62.3788 249.395 63.044 250.169 63.5128 251.168C63.9815 252.162 64.2159 253.327 64.2159 254.662V256.338C64.2159 257.674 63.9839 258.838 63.5199 259.833C63.0559 260.822 62.4048 261.592 61.5668 262.141C60.7287 262.685 59.7462 262.958 58.6193 262.958C57.464 262.958 56.5028 262.749 55.7358 262.333C54.9735 261.911 54.384 261.343 53.9673 260.628C53.5554 259.908 53.2973 259.103 53.1932 258.213ZM74.2532 256.537V258.1H68.2305V256.537H74.2532ZM68.6282 251.85V262.759H66.9521V251.85H68.6282ZM75.5316 251.85V262.759H73.8555V251.85H75.5316ZM83.1665 262.986C82.1154 262.986 81.2087 262.754 80.4464 262.29C79.6888 261.821 79.104 261.168 78.6921 260.33C78.2849 259.487 78.0813 258.507 78.0813 257.389C78.0813 256.272 78.2849 255.287 78.6921 254.435C79.104 253.578 79.677 252.91 80.4109 252.432C81.1495 251.949 82.0112 251.708 82.9961 251.708C83.5643 251.708 84.1254 251.802 84.6793 251.992C85.2333 252.181 85.7376 252.489 86.1921 252.915C86.6467 253.336 87.0089 253.895 87.2788 254.591C87.5486 255.287 87.6836 256.144 87.6836 257.162V257.872H79.2745V256.424H85.979C85.979 255.808 85.8559 255.259 85.6097 254.776C85.3683 254.293 85.0226 253.912 84.5728 253.632C84.1277 253.353 83.6022 253.213 82.9961 253.213C82.3285 253.213 81.7508 253.379 81.2631 253.71C80.7802 254.037 80.4085 254.463 80.1481 254.989C79.8877 255.514 79.7575 256.078 79.7575 256.679V257.645C79.7575 258.469 79.8995 259.167 80.1836 259.74C80.4724 260.309 80.8725 260.742 81.3839 261.04C81.8952 261.334 82.4895 261.48 83.1665 261.48C83.6069 261.48 84.0046 261.419 84.3597 261.296C84.7196 261.168 85.0297 260.978 85.2901 260.728C85.5505 260.472 85.7518 260.155 85.8938 259.776L87.5131 260.23C87.3427 260.78 87.0562 261.263 86.6538 261.679C86.2513 262.091 85.7541 262.413 85.1623 262.645C84.5704 262.872 83.9052 262.986 83.1665 262.986ZM90.2333 266.85V251.85H91.8526V253.583H92.0515C92.1746 253.393 92.345 253.152 92.5629 252.858C92.7854 252.56 93.1026 252.295 93.5146 252.063C93.9312 251.826 94.4947 251.708 95.2049 251.708C96.1235 251.708 96.9331 251.937 97.6339 252.397C98.3346 252.856 98.8815 253.507 99.2745 254.35C99.6675 255.193 99.864 256.187 99.864 257.333C99.864 258.488 99.6675 259.489 99.2745 260.337C98.8815 261.18 98.337 261.833 97.641 262.297C96.945 262.756 96.1424 262.986 95.2333 262.986C94.5325 262.986 93.9715 262.87 93.5501 262.638C93.1287 262.401 92.8043 262.134 92.5771 261.835C92.3498 261.532 92.1746 261.282 92.0515 261.083H91.9094V266.85H90.2333ZM91.881 257.304C91.881 258.128 92.0018 258.855 92.2433 259.485C92.4847 260.11 92.8375 260.6 93.3015 260.955C93.7655 261.305 94.3337 261.48 95.006 261.48C95.7068 261.48 96.2915 261.296 96.7603 260.926C97.2338 260.552 97.5889 260.05 97.8256 259.421C98.0671 258.786 98.1879 258.081 98.1879 257.304C98.1879 256.537 98.0695 255.846 97.8327 255.23C97.6007 254.61 97.248 254.12 96.7745 253.76C96.3058 253.396 95.7163 253.213 95.006 253.213C94.3242 253.213 93.7513 253.386 93.2873 253.732C92.8233 254.073 92.4729 254.551 92.2361 255.166C91.9994 255.777 91.881 256.49 91.881 257.304ZM109.154 251.85V253.412H104.097V262.759H102.421V251.85H109.154ZM113.277 260.287L118.532 251.85H120.464V262.759H118.788V254.321L113.561 262.759H111.6V251.85H113.277V260.287ZM130.097 262.759V253.384H127.199C126.545 253.384 126.032 253.535 125.658 253.838C125.284 254.141 125.097 254.558 125.097 255.088C125.097 255.609 125.265 256.019 125.601 256.317C125.942 256.615 126.408 256.764 127 256.764H130.523V258.327H127C126.261 258.327 125.625 258.197 125.089 257.936C124.554 257.676 124.143 257.304 123.854 256.821C123.565 256.334 123.42 255.756 123.42 255.088C123.42 254.416 123.572 253.838 123.875 253.355C124.178 252.872 124.611 252.501 125.175 252.24C125.743 251.98 126.418 251.85 127.199 251.85H131.687V262.759H130.097ZM122.824 262.759L125.92 257.333H127.739L124.642 262.759H122.824Z" fill="#1D1D1D"/>
<rect x="310" y="224.517" width="184" height="62.4838" rx="11" stroke="black" stroke-width="2"/>
<path d="M382.56 250.359C381.8 250.359 381.113 250.492 380.5 250.759C379.887 251.012 379.367 251.392 378.94 251.899C378.513 252.392 378.187 252.999 377.96 253.719C377.733 254.425 377.62 255.225 377.62 256.119C377.62 257.292 377.8 258.312 378.16 259.179C378.533 260.045 379.08 260.712 379.8 261.179C380.533 261.645 381.447 261.879 382.54 261.879C383.167 261.879 383.76 261.825 384.32 261.719C384.88 261.612 385.427 261.479 385.96 261.319V262.879C385.427 263.079 384.873 263.225 384.3 263.319C383.74 263.412 383.067 263.459 382.28 263.459C380.827 263.459 379.613 263.159 378.64 262.559C377.667 261.959 376.933 261.105 376.44 259.999C375.96 258.892 375.72 257.592 375.72 256.099C375.72 255.019 375.867 254.032 376.16 253.139C376.467 252.245 376.907 251.472 377.48 250.819C378.067 250.165 378.787 249.665 379.64 249.319C380.493 248.959 381.473 248.779 382.58 248.779C383.313 248.779 384.02 248.852 384.7 248.999C385.38 249.145 385.987 249.352 386.52 249.619L385.8 251.139C385.36 250.939 384.867 250.759 384.32 250.599C383.787 250.439 383.2 250.359 382.56 250.359ZM396.237 254.019H392.737V263.259H390.997V254.019H387.537V252.539H396.237V254.019ZM402.408 252.359C403.715 252.359 404.682 252.645 405.308 253.219C405.935 253.792 406.248 254.705 406.248 255.959V263.259H404.968L404.628 261.739H404.548C404.242 262.125 403.922 262.452 403.588 262.719C403.268 262.972 402.895 263.159 402.468 263.279C402.055 263.399 401.548 263.459 400.948 263.459C400.308 263.459 399.728 263.345 399.208 263.119C398.702 262.892 398.302 262.545 398.008 262.079C397.715 261.599 397.568 260.999 397.568 260.279C397.568 259.212 397.988 258.392 398.828 257.819C399.668 257.232 400.962 256.912 402.708 256.859L404.528 256.799V256.159C404.528 255.265 404.335 254.645 403.948 254.299C403.562 253.952 403.015 253.779 402.308 253.779C401.748 253.779 401.215 253.865 400.708 254.039C400.202 254.199 399.728 254.385 399.288 254.599L398.748 253.279C399.215 253.025 399.768 252.812 400.408 252.639C401.048 252.452 401.715 252.359 402.408 252.359ZM402.928 258.079C401.595 258.132 400.668 258.345 400.148 258.719C399.642 259.092 399.388 259.619 399.388 260.299C399.388 260.899 399.568 261.339 399.928 261.619C400.302 261.899 400.775 262.039 401.348 262.039C402.255 262.039 403.008 261.792 403.608 261.299C404.208 260.792 404.508 260.019 404.508 258.979V258.019L402.928 258.079ZM414.659 252.339C415.979 252.339 417.039 252.799 417.839 253.719C418.653 254.639 419.059 256.025 419.059 257.879C419.059 259.092 418.873 260.119 418.499 260.959C418.139 261.785 417.626 262.412 416.959 262.839C416.306 263.252 415.533 263.459 414.639 263.459C414.093 263.459 413.606 263.385 413.179 263.239C412.753 263.092 412.386 262.905 412.079 262.679C411.786 262.439 411.533 262.179 411.319 261.899H411.199C411.226 262.125 411.253 262.412 411.279 262.759C411.306 263.105 411.319 263.405 411.319 263.659V268.059H409.559V252.539H410.999L411.239 253.999H411.319C411.533 253.692 411.786 253.412 412.079 253.159C412.386 252.905 412.746 252.705 413.159 252.559C413.586 252.412 414.086 252.339 414.659 252.339ZM414.339 253.819C413.619 253.819 413.039 253.959 412.599 254.239C412.159 254.505 411.839 254.912 411.639 255.459C411.439 256.005 411.333 256.699 411.319 257.539V257.879C411.319 258.759 411.413 259.505 411.599 260.119C411.786 260.732 412.099 261.199 412.539 261.519C412.993 261.839 413.606 261.999 414.379 261.999C415.033 261.999 415.566 261.819 415.979 261.459C416.406 261.099 416.719 260.612 416.919 259.999C417.133 259.372 417.239 258.659 417.239 257.859C417.239 256.632 416.999 255.652 416.519 254.919C416.053 254.185 415.326 253.819 414.339 253.819ZM429.069 254.019H425.569V263.259H423.829V254.019H420.369V252.539H429.069V254.019Z" fill="white"/>
<rect x="0.455692" y="1.33407" width="183.714" height="62.5844" rx="11" transform="matrix(0.899099 0.437746 -0.443407 0.89632 149.223 137.443)" stroke="black" stroke-width="2"/>
<path d="M174.651 193.896L175.369 192.444L175.752 192.631C176.297 192.896 176.807 192.928 177.281 192.727C177.756 192.526 178.251 192.07 178.767 191.357C179.288 190.647 179.888 189.663 180.569 188.404L183.91 182.226L191.88 186.106L185.43 199.144L183.846 198.372L189.603 186.736L184.725 184.36L181.95 189.455C181.223 190.797 180.523 191.899 179.848 192.761C179.173 193.622 178.46 194.183 177.708 194.444C176.956 194.704 176.099 194.6 175.136 194.132L174.651 193.896ZM192.401 202.79C191.456 202.33 190.744 201.725 190.264 200.976C189.791 200.224 189.555 199.382 189.556 198.451C189.564 197.517 189.815 196.55 190.311 195.548C190.806 194.546 191.426 193.753 192.17 193.167C192.92 192.579 193.732 192.232 194.603 192.124C195.482 192.015 196.364 192.176 197.249 192.607C197.76 192.855 198.222 193.186 198.637 193.598C199.051 194.01 199.368 194.507 199.587 195.088C199.809 195.665 199.887 196.324 199.821 197.066C199.755 197.808 199.496 198.635 199.045 199.548L198.73 200.184L191.17 196.503L191.812 195.205L197.84 198.139C198.113 197.588 198.246 197.042 198.239 196.501C198.236 195.962 198.094 195.469 197.813 195.022C197.537 194.577 197.126 194.222 196.581 193.956C195.981 193.664 195.388 193.56 194.803 193.643C194.224 193.725 193.701 193.944 193.234 194.301C192.766 194.658 192.399 195.106 192.133 195.645L191.705 196.511C191.339 197.249 191.157 197.938 191.159 198.575C191.166 199.211 191.334 199.775 191.662 200.266C191.991 200.753 192.46 201.144 193.069 201.441C193.465 201.634 193.85 201.753 194.224 201.798C194.604 201.841 194.967 201.807 195.312 201.696C195.66 201.58 195.981 201.384 196.277 201.107L197.531 202.223C197.135 202.641 196.663 202.948 196.116 203.146C195.572 203.339 194.982 203.41 194.347 203.358C193.714 203.303 193.066 203.114 192.401 202.79ZM196.077 190.172C195.808 190.041 195.62 189.823 195.513 189.518C195.411 189.21 195.427 188.923 195.559 188.656C195.704 188.363 195.925 188.171 196.224 188.079C196.529 187.986 196.816 188.004 197.084 188.135C197.378 188.278 197.572 188.493 197.667 188.782C197.769 189.068 197.747 189.358 197.602 189.651C197.47 189.918 197.254 190.108 196.956 190.221C196.663 190.331 196.37 190.315 196.077 190.172ZM199.755 191.962C199.487 191.832 199.299 191.614 199.191 191.309C199.089 191.001 199.105 190.714 199.237 190.446C199.382 190.154 199.604 189.961 199.902 189.87C200.208 189.776 200.494 189.795 200.762 189.925C201.056 190.068 201.251 190.284 201.346 190.573C201.447 190.859 201.425 191.149 201.28 191.441C201.148 191.709 200.933 191.899 200.634 192.011C200.342 192.122 200.048 192.105 199.755 191.962ZM209.747 198.849L209.054 200.25L204.507 198.036L200.363 206.414L198.856 205.68L203.693 195.902L209.747 198.849ZM207.109 209.699L211.947 199.92L213.454 200.654L211.35 204.907L212.346 205.392L217.975 202.855L219.916 203.8L213.626 206.584L215.13 213.603L213.188 212.658L212.011 206.966L210.657 206.307L208.616 210.432L207.109 209.699ZM220.248 216.348C219.362 215.917 218.689 215.328 218.229 214.583C217.772 213.839 217.544 212.999 217.543 212.061C217.546 211.125 217.798 210.152 218.297 209.142C218.801 208.124 219.426 207.325 220.172 206.745C220.923 206.168 221.734 205.831 222.606 205.734C223.482 205.64 224.363 205.808 225.249 206.239C226.134 206.67 226.805 207.257 227.261 208.001C227.722 208.746 227.949 209.589 227.944 210.529C227.943 211.471 227.69 212.451 227.186 213.47C226.687 214.48 226.063 215.272 225.314 215.845C224.57 216.42 223.76 216.755 222.884 216.849C222.012 216.946 221.133 216.779 220.248 216.348ZM220.915 214.998C221.588 215.326 222.226 215.423 222.831 215.291C223.435 215.159 223.98 214.863 224.466 214.405C224.951 213.946 225.356 213.39 225.679 212.736C226.003 212.083 226.199 211.423 226.27 210.757C226.341 210.091 226.245 209.478 225.983 208.919C225.721 208.359 225.254 207.916 224.581 207.588C223.908 207.261 223.269 207.166 222.662 207.302C222.056 207.439 221.509 207.738 221.021 208.201C220.533 208.664 220.128 209.222 219.804 209.876C219.481 210.53 219.285 211.187 219.217 211.849C219.148 212.511 219.246 213.119 219.51 213.674C219.774 214.23 220.243 214.671 220.915 214.998ZM230.977 221.572C230.058 221.124 229.373 220.522 228.923 219.766C228.473 219.01 228.257 218.165 228.275 217.231C228.293 216.297 228.544 215.342 229.027 214.366C229.518 213.373 230.135 212.586 230.877 212.004C231.625 211.421 232.435 211.075 233.307 210.968C234.185 210.858 235.067 211.019 235.952 211.45C236.642 211.786 237.201 212.216 237.628 212.74C238.056 213.264 238.333 213.841 238.459 214.472C238.586 215.102 238.541 215.744 238.323 216.396L236.816 215.662C236.922 215.161 236.862 214.642 236.636 214.105C236.416 213.567 235.975 213.136 235.31 212.812C234.723 212.526 234.132 212.428 233.538 212.518C232.951 212.606 232.397 212.866 231.877 213.297C231.364 213.727 230.924 214.311 230.559 215.049C230.185 215.804 229.979 216.52 229.94 217.196C229.906 217.875 230.031 218.476 230.317 218.999C230.606 219.524 231.049 219.932 231.645 220.222C232.036 220.413 232.425 220.518 232.812 220.538C233.198 220.557 233.565 220.494 233.913 220.347C234.26 220.2 234.569 219.971 234.839 219.66L236.346 220.394C235.975 220.93 235.507 221.347 234.942 221.646C234.383 221.943 233.762 222.093 233.078 222.097C232.401 222.099 231.701 221.924 230.977 221.572ZM240.51 215.565L241.202 214.164L249.172 218.044L248.479 219.445L245.26 217.878L241.116 226.255L239.609 225.522L243.753 217.144L240.51 215.565ZM250.922 223.288L253.731 224.656C254.881 225.216 255.616 225.935 255.937 226.812C256.258 227.69 256.198 228.575 255.758 229.466C255.468 230.052 255.068 230.518 254.558 230.865C254.051 231.207 253.463 231.392 252.794 231.42C252.128 231.443 251.411 231.268 250.645 230.895L246.533 228.893L251.37 219.115L252.877 219.848L248.733 228.226L251.338 229.494C251.934 229.784 252.501 229.866 253.04 229.738C253.578 229.611 253.969 229.301 254.213 228.809C254.469 228.291 254.486 227.775 254.265 227.262C254.043 226.749 253.634 226.347 253.038 226.057L250.229 224.689L250.922 223.288Z" fill="white"/>
<rect x="0.759376" y="1.19022" width="183.931" height="62.508" rx="11" transform="matrix(0.976802 0.214145 -0.217425 0.976077 256.237 122.733)" stroke="black" stroke-width="2"/>
<path d="M292.092 170.974L295.255 156.777L300.056 157.829C301.17 158.074 302.037 158.475 302.655 159.032C303.279 159.585 303.686 160.239 303.877 160.994C304.068 161.748 304.07 162.544 303.884 163.38C303.697 164.217 303.357 164.939 302.862 165.548C302.372 166.158 301.728 166.589 300.93 166.841C300.133 167.088 299.181 167.09 298.076 166.848L294.635 166.093L294.975 164.568L298.36 165.31C299.123 165.478 299.766 165.48 300.287 165.318C300.808 165.156 301.223 164.874 301.53 164.471C301.844 164.065 302.064 163.577 302.191 163.009C302.318 162.441 302.324 161.909 302.211 161.414C302.103 160.92 301.844 160.495 301.433 160.138C301.024 159.777 300.433 159.512 299.661 159.342L296.636 158.679L293.813 171.352L292.092 170.974ZM308.575 174.821C307.548 174.595 306.713 174.175 306.069 173.559C305.431 172.939 305.002 172.176 304.782 171.27C304.568 170.36 304.582 169.36 304.825 168.269C305.068 167.178 305.481 166.261 306.064 165.516C306.652 164.768 307.357 164.239 308.178 163.929C309.005 163.616 309.899 163.565 310.861 163.775C311.416 163.897 311.943 164.11 312.443 164.413C312.943 164.717 313.369 165.125 313.72 165.638C314.073 166.147 314.305 166.77 314.417 167.507C314.53 168.244 314.475 169.11 314.254 170.103L314.099 170.797L305.885 168.996L306.2 167.582L312.749 169.017C312.883 168.417 312.882 167.854 312.747 167.33C312.616 166.807 312.361 166.361 311.983 165.992C311.608 165.624 311.125 165.375 310.533 165.245C309.881 165.102 309.281 165.14 308.733 165.359C308.19 165.575 307.734 165.911 307.365 166.368C306.997 166.826 306.747 167.348 306.616 167.935L306.406 168.877C306.227 169.682 306.214 170.394 306.367 171.014C306.526 171.63 306.822 172.139 307.257 172.539C307.693 172.935 308.241 173.206 308.903 173.351C309.333 173.445 309.735 173.47 310.108 173.426C310.487 173.378 310.832 173.26 311.141 173.071C311.45 172.877 311.716 172.61 311.937 172.271L313.42 173.062C313.134 173.561 312.749 173.971 312.266 174.292C311.783 174.608 311.227 174.815 310.599 174.915C309.971 175.01 309.297 174.979 308.575 174.821ZM315.467 173.249L317.215 173.632C317.145 174.121 317.281 174.533 317.623 174.87C317.97 175.208 318.465 175.447 319.108 175.588C319.764 175.732 320.356 175.721 320.883 175.556C321.411 175.385 321.742 174.998 321.877 174.392C321.956 174.036 321.937 173.707 321.82 173.405C321.704 173.099 321.503 172.837 321.217 172.619C320.931 172.401 320.57 172.244 320.136 172.149L318.304 171.748L318.632 170.278L320.463 170.679C321.115 170.822 321.629 170.78 322.005 170.552C322.385 170.325 322.625 169.99 322.724 169.546C322.83 169.07 322.746 168.652 322.472 168.291C322.199 167.926 321.753 167.676 321.133 167.54C320.509 167.403 319.957 167.43 319.478 167.621C319 167.807 318.701 168.117 318.58 168.551L316.859 168.173C317.005 167.604 317.294 167.137 317.725 166.771C318.156 166.4 318.687 166.153 319.316 166.029C319.946 165.901 320.631 165.917 321.371 166.08C322.12 166.244 322.741 166.518 323.233 166.902C323.73 167.283 324.079 167.73 324.28 168.244C324.486 168.755 324.527 169.292 324.401 169.856C324.267 170.457 323.99 170.905 323.57 171.201C323.15 171.496 322.668 171.667 322.125 171.713L322.1 171.824C322.496 171.939 322.817 172.145 323.061 172.441C323.311 172.734 323.478 173.083 323.563 173.489C323.648 173.891 323.641 174.314 323.542 174.757C323.398 175.404 323.099 175.93 322.645 176.335C322.192 176.735 321.633 177 320.969 177.13C320.305 177.256 319.585 177.234 318.808 177.064C318.054 176.899 317.406 176.628 316.864 176.252C316.323 175.872 315.926 175.424 315.672 174.908C315.424 174.388 315.356 173.835 315.467 173.249ZM325.346 182.453C325.068 182.392 324.826 182.314 324.619 182.221C324.411 182.131 324.27 182.057 324.196 181.997L324.933 180.646C325.309 180.835 325.652 180.949 325.963 180.988C326.275 181.028 326.576 180.951 326.866 180.757C327.16 180.57 327.467 180.227 327.786 179.73L328.277 178.965L326.72 167.398L328.496 167.787L329.548 176.917L329.659 176.942L334.49 169.101L336.266 169.491L329.025 180.7C328.699 181.205 328.346 181.605 327.965 181.9C327.583 182.199 327.174 182.393 326.737 182.481C326.304 182.571 325.841 182.561 325.346 182.453ZM334.215 180.209L334.555 178.684L334.944 178.769C335.263 178.839 335.543 178.835 335.783 178.757C336.025 178.674 336.246 178.487 336.446 178.197C336.652 177.903 336.854 177.477 337.051 176.919C337.254 176.357 337.471 175.634 337.702 174.749L338.946 170.078L346.05 171.635L343.678 182.284L342.041 181.925L344.073 172.802L340.16 171.944L339.148 175.706C338.916 176.572 338.666 177.324 338.397 177.963C338.135 178.599 337.833 179.114 337.493 179.51C337.157 179.906 336.767 180.175 336.324 180.315C335.88 180.455 335.362 180.46 334.77 180.331L334.215 180.209ZM349.611 176.459L352.663 177.128C353.912 177.402 354.796 177.928 355.317 178.706C355.837 179.484 355.989 180.358 355.773 181.329C355.631 181.967 355.354 182.514 354.941 182.971C354.53 183.424 354.003 183.742 353.361 183.926C352.719 184.106 351.982 184.104 351.15 183.922L346.682 182.942L349.054 172.294L350.691 172.653L348.659 181.776L351.49 182.396C352.137 182.538 352.707 182.484 353.199 182.233C353.692 181.983 353.998 181.589 354.117 181.053C354.243 180.489 354.137 179.984 353.8 179.537C353.463 179.089 352.971 178.795 352.323 178.653L349.271 177.984L349.611 176.459ZM357.815 175.814L358.154 174.289L366.812 176.187L366.473 177.712L362.976 176.946L360.944 186.069L359.307 185.71L361.339 176.587L357.815 175.814ZM369.355 188.175C368.68 188.027 368.096 187.765 367.602 187.39C367.109 187.011 366.755 186.543 366.539 185.987C366.325 185.426 366.295 184.799 366.449 184.106C366.585 183.496 366.815 183.027 367.14 182.701C367.466 182.37 367.855 182.14 368.305 182.011C368.756 181.882 369.236 181.818 369.745 181.818C370.26 181.815 370.773 181.835 371.282 181.879C371.948 181.937 372.487 181.99 372.898 182.037C373.316 182.08 373.629 182.068 373.837 182.003C374.051 181.938 374.187 181.774 374.245 181.51L374.258 181.455C374.41 180.771 374.341 180.198 374.051 179.737C373.765 179.277 373.246 178.964 372.492 178.799C371.71 178.628 371.059 178.664 370.539 178.909C370.019 179.154 369.625 179.45 369.358 179.799L367.928 178.904C368.35 178.318 368.832 177.895 369.375 177.636C369.923 177.373 370.488 177.231 371.071 177.208C371.659 177.182 372.221 177.227 372.757 177.345C373.1 177.42 373.483 177.548 373.909 177.728C374.34 177.905 374.736 178.164 375.097 178.505C375.462 178.847 375.727 179.3 375.892 179.865C376.058 180.429 376.046 181.134 375.858 181.98L374.295 188.996L372.658 188.637L372.979 187.195L372.896 187.177C372.733 187.383 372.493 187.59 372.176 187.797C371.858 188.003 371.463 188.152 370.992 188.243C370.521 188.333 369.975 188.31 369.355 188.175ZM369.933 186.76C370.58 186.902 371.154 186.894 371.655 186.737C372.16 186.581 372.571 186.327 372.887 185.975C373.208 185.624 373.418 185.226 373.516 184.782L373.85 183.285C373.762 183.353 373.592 183.396 373.341 183.413C373.095 183.427 372.814 183.426 372.498 183.41C372.187 183.391 371.884 183.368 371.589 183.342C371.3 183.312 371.064 183.29 370.884 183.275C370.446 183.237 370.028 183.24 369.63 183.283C369.238 183.323 368.901 183.441 368.62 183.636C368.345 183.828 368.16 184.132 368.068 184.548C367.941 185.116 368.056 185.592 368.412 185.975C368.774 186.355 369.28 186.617 369.933 186.76ZM377.866 180.21L378.205 178.685L386.863 180.583L386.524 182.108L383.027 181.342L380.995 190.465L379.358 190.106L381.39 180.983L377.866 180.21Z" fill="white"/>
<rect x="0.594217" y="1.2793" width="183.826" height="62.5449" rx="11" transform="matrix(0.940059 0.341012 -0.345842 0.938293 182.807 17.639)" stroke="black" stroke-width="2"/>
<path d="M248.706 72.98L247.05 72.3794C247.128 71.8685 247.11 71.3887 246.998 70.9401C246.89 70.493 246.708 70.0843 246.451 69.7141C246.2 69.3409 245.888 69.0163 245.515 68.7401C245.143 68.464 244.73 68.2435 244.276 68.0788C243.448 67.7785 242.621 67.7152 241.795 67.889C240.973 68.0645 240.214 68.4868 239.519 69.1561C238.827 69.827 238.264 70.7534 237.828 71.9351C237.393 73.1169 237.221 74.1853 237.313 75.1404C237.409 76.0971 237.714 76.9054 238.228 77.5652C238.746 78.2266 239.419 78.7075 240.247 79.0078C240.701 79.1725 241.16 79.2685 241.625 79.2959C242.089 79.3233 242.537 79.277 242.97 79.157C243.409 79.0341 243.815 78.8364 244.188 78.5637C244.567 78.2882 244.892 77.9327 245.164 77.4973L246.82 78.098C246.438 78.7503 245.981 79.2921 245.448 79.7235C244.916 80.1549 244.334 80.4751 243.702 80.684C243.071 80.8885 242.414 80.98 241.731 80.9588C241.052 80.9391 240.367 80.8041 239.677 80.5539C238.511 80.1308 237.579 79.4703 236.881 78.5722C236.182 77.6742 235.766 76.6065 235.631 75.3691C235.497 74.1317 235.695 72.7933 236.226 71.3539C236.756 69.9144 237.475 68.7649 238.382 67.9054C239.29 67.0458 240.302 66.4964 241.42 66.2571C242.537 66.0179 243.679 66.1097 244.845 66.5328C245.535 66.783 246.146 67.1179 246.678 67.5374C247.214 67.9586 247.655 68.4512 248.003 69.0153C248.351 69.575 248.589 70.19 248.715 70.8604C248.843 71.5263 248.84 72.2329 248.706 72.98ZM250.14 81.5086L257.999 75.384L259.815 76.0427L256.042 86.2787L254.466 85.7071L257.384 77.7902L249.552 83.9245L247.71 83.2561L251.482 73.0201L253.058 73.5917L250.14 81.5086ZM258.02 86.9962L258.56 85.5301L258.934 85.6657C259.241 85.7771 259.519 85.81 259.768 85.7643C260.019 85.7142 260.263 85.5585 260.501 85.2971C260.744 85.033 261.001 84.6375 261.271 84.1109C261.547 83.5814 261.858 82.8936 262.206 82.0474L264.063 77.5837L270.9 80.0638L267.127 90.2997L265.551 89.7281L268.784 80.9583L265.018 79.5923L263.512 83.1861C263.167 84.0128 262.818 84.7251 262.467 85.3228C262.121 85.9178 261.753 86.3887 261.363 86.7357C260.977 87.0843 260.555 87.2988 260.097 87.3793C259.638 87.4597 259.124 87.3966 258.554 87.1899L258.02 86.9962ZM272.947 92.6831C272.297 92.4473 271.752 92.1112 271.313 91.6747C270.875 91.2338 270.586 90.7236 270.446 90.1441C270.308 89.5601 270.362 88.9349 270.608 88.2685C270.824 87.6821 271.115 87.2487 271.481 86.9684C271.848 86.6836 272.264 86.507 272.728 86.4387C273.192 86.3704 273.677 86.3699 274.182 86.4372C274.693 86.5018 275.198 86.5893 275.697 86.6999C276.35 86.846 276.877 86.9693 277.279 87.0697C277.687 87.1674 277.999 87.1974 278.215 87.1598C278.435 87.1239 278.592 86.9793 278.685 86.726L278.705 86.6727C278.947 86.0152 278.955 85.4389 278.729 84.9438C278.507 84.4503 278.033 84.072 277.308 83.8088C276.556 83.5359 275.905 83.4864 275.357 83.6601C274.808 83.8339 274.379 84.0759 274.067 84.3861L272.768 83.3104C273.265 82.7854 273.799 82.4303 274.372 82.2452C274.951 82.0573 275.531 81.9906 276.111 82.045C276.698 82.0966 277.249 82.216 277.765 82.4033C278.095 82.5228 278.458 82.7 278.856 82.935C279.26 83.1672 279.618 83.4758 279.93 83.8611C280.247 84.2479 280.45 84.7319 280.538 85.313C280.627 85.8941 280.521 86.5912 280.222 87.4042L277.736 94.1482L276.16 93.5766L276.671 92.1905L276.591 92.1614C276.402 92.3448 276.137 92.5179 275.794 92.6807C275.451 92.8435 275.04 92.9387 274.561 92.9663C274.081 92.9938 273.544 92.8994 272.947 92.6831ZM273.708 91.3575C274.331 91.5835 274.902 91.6519 275.419 91.5625C275.941 91.4748 276.382 91.2772 276.742 90.9698C277.107 90.6641 277.369 90.2979 277.526 89.8714L278.056 88.432C277.96 88.4878 277.786 88.5078 277.535 88.4921C277.289 88.4735 277.011 88.4354 276.699 88.3777C276.393 88.3172 276.096 88.2547 275.807 88.1901C275.524 88.1227 275.293 88.0694 275.116 88.0303C274.687 87.935 274.272 87.8828 273.872 87.8736C273.478 87.8616 273.128 87.9337 272.823 88.09C272.525 88.2436 272.301 88.5202 272.154 88.9201C271.953 89.4665 272.003 89.9532 272.305 90.38C272.613 90.804 273.081 91.1298 273.708 91.3575Z" fill="white"/>
<rect width="185.239" height="64.751" rx="12" transform="matrix(0.698164 0.715938 -0.721478 0.692438 363.039 0)" fill="white"/>
<path d="M401.16 74.6549L390.666 84.7268L389.436 83.4657L398.803 74.4758L393.686 69.2284L384.319 78.2182L383.089 76.9572L393.584 66.8854L401.16 74.6549ZM392.314 86.4162L393.441 85.3342L393.719 85.619C393.947 85.8529 394.183 86.0036 394.427 86.071C394.675 86.1351 394.963 86.1015 395.291 85.9702C395.626 85.839 396.03 85.5956 396.503 85.2399C396.983 84.8843 397.564 84.402 398.247 83.7929L401.87 80.5911L406.948 85.798L399.077 93.3518L397.907 92.1518L404.65 85.6799L401.854 82.8121L398.927 85.385C398.254 85.9776 397.629 86.4658 397.052 86.8498C396.48 87.2339 395.943 87.4968 395.44 87.6386C394.94 87.7837 394.466 87.7925 394.018 87.665C393.569 87.5376 393.133 87.2569 392.71 86.823L392.314 86.4162ZM403.281 98.0289C402.798 97.534 402.454 96.9947 402.249 96.411C402.047 95.824 402.009 95.2397 402.137 94.6582C402.267 94.0733 402.589 93.535 403.101 93.0432C403.552 92.6105 404.004 92.3478 404.456 92.2552C404.911 92.1594 405.363 92.1819 405.811 92.3227C406.259 92.4635 406.696 92.6742 407.122 92.9547C407.554 93.2353 407.971 93.5341 408.373 93.8509C408.897 94.2665 409.318 94.6069 409.637 94.8724C409.962 95.1379 410.23 95.3007 410.44 95.3609C410.654 95.4245 410.859 95.3628 411.054 95.176L411.095 95.1366C411.6 94.6514 411.859 94.1371 411.871 93.5936C411.887 93.0536 411.626 92.5073 411.087 91.9548C410.528 91.3819 409.964 91.054 409.394 90.9712C408.823 90.8884 408.33 90.9186 407.915 91.0618L407.214 89.5294C407.89 89.2738 408.527 89.1876 409.124 89.2708C409.728 89.3542 410.279 89.5468 410.779 89.8485C411.285 90.1504 411.729 90.4979 412.113 90.8912C412.358 91.142 412.608 91.4597 412.864 91.8441C413.126 92.2287 413.314 92.662 413.427 93.1441C413.543 93.6296 413.515 94.1528 413.341 94.7135C413.167 95.2743 412.767 95.8547 412.142 96.4547L406.956 101.432L405.786 100.232L406.852 99.2086L406.792 99.1476C406.542 99.2302 406.227 99.27 405.847 99.267C405.468 99.2641 405.056 99.1705 404.611 98.9864C404.167 98.8023 403.724 98.4831 403.281 98.0289ZM404.546 97.1694C405.009 97.6439 405.493 97.9538 405.998 98.0989C406.506 98.2474 406.99 98.2621 407.449 98.1429C407.912 98.0272 408.307 97.8119 408.635 97.4972L409.742 96.4349C409.631 96.4431 409.465 96.3853 409.245 96.2616C409.032 96.138 408.798 95.9824 408.542 95.7947C408.293 95.6072 408.052 95.4214 407.82 95.2375C407.595 95.0537 407.411 94.9055 407.268 94.7931C406.923 94.5206 406.572 94.293 406.215 94.1103C405.865 93.9278 405.519 93.8403 405.176 93.848C404.839 93.8558 404.517 94.0072 404.21 94.3023C403.79 94.7055 403.622 95.1647 403.708 95.6797C403.8 96.1948 404.08 96.6914 404.546 97.1694ZM418.678 104.541L417.551 105.623L413.346 101.311L414.473 100.229L418.678 104.541ZM418.133 97.268L410.262 104.822L409.092 103.622L416.963 96.068L418.133 97.268ZM422.953 102.21L415.082 109.764L413.912 108.564L421.782 101.01L422.953 102.21Z" fill="#1D1D1D"/>
<rect width="185.345" height="64.7138" rx="12" transform="matrix(0.747967 -0.663735 0.669641 0.742685 8 179.871)" fill="white"/>
<path d="M72.704 175.336C72.0028 175.958 71.2699 176.393 70.5054 176.641C69.7444 176.886 69.0109 176.939 68.305 176.799C67.5995 176.653 66.9773 176.31 66.4385 175.769L67.7772 174.581C68.1194 174.904 68.5109 175.098 68.9517 175.162C69.3893 175.223 69.8417 175.17 70.3089 175.002C70.776 174.835 71.2186 174.565 71.6365 174.195C72.104 173.78 72.4454 173.331 72.6608 172.849C72.8762 172.366 72.9566 171.89 72.902 171.419C72.8474 170.949 72.6489 170.524 72.3065 170.144C71.9482 169.746 71.5335 169.484 71.0625 169.358C70.5884 169.228 70.0823 169.247 69.5445 169.414C69.0067 169.581 68.4615 169.91 67.909 170.4L67.0378 171.173L65.9915 170.012L66.8627 169.239C67.2948 168.856 67.604 168.442 67.7903 167.999C67.9801 167.552 68.0403 167.106 67.9708 166.661C67.9049 166.213 67.7007 165.799 67.3582 165.419C67.0285 165.054 66.6601 164.808 66.253 164.682C65.846 164.555 65.4256 164.549 64.9917 164.661C64.5614 164.771 64.1462 165.003 63.746 165.359C63.3706 165.692 63.0783 166.074 62.869 166.507C62.6602 166.933 62.567 167.367 62.5895 167.809C62.6088 168.248 62.7713 168.654 63.077 169.029L61.8021 170.16C61.3129 169.575 61.0376 168.927 60.9762 168.215C60.9117 167.5 61.0319 166.792 61.3369 166.091C61.6454 165.387 62.1131 164.757 62.74 164.2C63.4129 163.603 64.1122 163.226 64.838 163.07C65.5606 162.91 66.2493 162.935 66.9042 163.145C67.5591 163.355 68.1164 163.715 68.5761 164.225C69.1246 164.833 69.4312 165.495 69.4957 166.21C69.5638 166.922 69.3979 167.604 68.998 168.256L69.0741 168.341C69.8626 167.843 70.6607 167.657 71.4684 167.783C72.273 167.904 72.9844 168.308 73.6026 168.994C74.1321 169.581 74.4466 170.251 74.546 171.005C74.6458 171.752 74.5399 172.504 74.2284 173.262C73.9169 174.019 73.4088 174.711 72.704 175.336ZM79.6623 173.073L76.5234 169.592L77.2034 168.989C77.2145 168.669 77.1899 168.355 77.1295 168.048C77.0692 167.74 76.9597 167.41 76.8009 167.057C76.6425 166.698 76.416 166.291 76.1215 165.837C75.8238 165.38 75.4445 164.846 74.9836 164.236L72.3682 160.784L77.553 156.183L83.8118 163.124L85.0655 162.012L88.2045 165.493L86.9508 166.606L84.8582 164.285L78.8234 169.64L80.916 171.961L79.6623 173.073ZM78.6271 167.725L82.5581 164.237L77.3456 158.456L74.5832 160.907L76.216 163.142C76.8916 164.068 77.4493 164.906 77.8889 165.655C78.3286 166.404 78.5747 167.094 78.6271 167.725ZM91.243 158.923C90.5063 159.577 89.7031 159.976 88.8331 160.121C87.9668 160.263 87.0956 160.16 86.2195 159.81C85.3471 159.458 84.5335 158.863 83.7789 158.026C83.0179 157.182 82.5077 156.309 82.2483 155.406C81.9924 154.5 81.9838 153.628 82.2223 152.789C82.4645 151.948 82.9538 151.2 83.6905 150.547C84.4271 149.893 85.2286 149.495 86.095 149.353C86.9649 149.208 87.8377 149.313 88.7133 149.669C89.5925 150.022 90.4126 150.62 91.1736 151.464C91.9282 152.301 92.4319 153.171 92.6846 154.073C92.9408 154.973 92.9479 155.843 92.7058 156.685C92.4672 157.523 91.9796 158.269 91.243 158.923ZM90.2347 157.805C90.7943 157.308 91.1262 156.757 91.2307 156.152C91.3351 155.546 91.2648 154.935 91.0198 154.316C90.7748 153.698 90.4082 153.118 89.9199 152.577C89.4316 152.035 88.8898 151.608 88.2946 151.294C87.6994 150.98 87.0912 150.84 86.4699 150.872C85.8487 150.904 85.2583 151.168 84.6987 151.665C84.1392 152.161 83.8088 152.714 83.7075 153.323C83.6063 153.932 83.6798 154.547 83.9279 155.169C84.1761 155.791 84.5443 156.372 85.0326 156.914C85.5209 157.455 86.061 157.881 86.6531 158.191C87.2452 158.502 87.8502 158.639 88.4683 158.603C89.0863 158.567 89.6751 158.301 90.2347 157.805ZM99.4413 156.813L89.3967 145.673L90.6079 144.598L91.7683 145.885L91.9171 145.753C91.8823 145.531 91.8481 145.238 91.8145 144.876C91.7812 144.506 91.8409 144.099 91.9936 143.653C92.1468 143.201 92.4889 142.739 93.0202 142.268C93.7072 141.658 94.4666 141.291 95.2983 141.167C96.13 141.043 96.975 141.164 97.8333 141.529C98.6916 141.894 99.5044 142.502 100.272 143.353C101.045 144.211 101.569 145.085 101.843 145.975C102.113 146.862 102.143 147.709 101.933 148.515C101.72 149.318 101.274 150.022 100.594 150.625C100.07 151.09 99.5724 151.376 99.1018 151.484C98.6281 151.588 98.2064 151.604 97.8366 151.534C97.4637 151.459 97.1646 151.389 96.9394 151.323L96.8331 151.418L100.695 155.701L99.4413 156.813ZM94.2817 148.63C94.8334 149.242 95.4104 149.702 96.0127 150.009C96.6119 150.313 97.2039 150.443 97.7887 150.399C98.3704 150.351 98.9127 150.104 99.4156 149.658C99.9398 149.193 100.253 148.667 100.357 148.082C100.46 147.49 100.39 146.881 100.145 146.256C99.9011 145.625 99.519 145.021 98.999 144.444C98.4854 143.875 97.9339 143.44 97.3447 143.14C96.7558 142.833 96.1638 142.703 95.5686 142.75C94.9739 142.791 94.4109 143.046 93.8797 143.518C93.3697 143.97 93.0569 144.479 92.9413 145.044C92.8225 145.605 92.8807 146.193 93.1158 146.807C93.3477 147.418 93.7364 148.025 94.2817 148.63ZM109.285 142.913C108.548 143.567 107.745 143.966 106.875 144.111C106.009 144.253 105.137 144.15 104.261 143.8C103.389 143.448 102.575 142.853 101.821 142.016C101.06 141.172 100.55 140.299 100.29 139.396C100.034 138.49 100.026 137.618 100.264 136.779C100.506 135.938 100.996 135.19 101.732 134.537C102.469 133.883 103.27 133.485 104.137 133.343C105.007 133.198 105.879 133.303 106.755 133.659C107.634 134.012 108.454 134.61 109.215 135.454C109.97 136.291 110.474 137.161 110.726 138.063C110.983 138.963 110.99 139.833 110.748 140.675C110.509 141.513 110.021 142.259 109.285 142.913ZM108.276 141.795C108.836 141.298 109.168 140.747 109.272 140.142C109.377 139.536 109.307 138.925 109.062 138.306C108.817 137.688 108.45 137.108 107.962 136.567C107.473 136.025 106.932 135.598 106.336 135.284C105.741 134.97 105.133 134.83 104.512 134.862C103.89 134.894 103.3 135.158 102.741 135.655C102.181 136.151 101.851 136.704 101.749 137.313C101.648 137.922 101.722 138.537 101.97 139.159C102.218 139.781 102.586 140.362 103.074 140.904C103.563 141.445 104.103 141.871 104.695 142.181C105.287 142.492 105.892 142.629 106.51 142.593C107.128 142.557 107.717 142.291 108.276 141.795ZM114.744 137.765L107.438 129.663L110.775 126.702C111.653 125.923 112.528 125.501 113.4 125.436C114.272 125.371 115 125.662 115.584 126.309C116.028 126.801 116.225 127.313 116.175 127.845C116.122 128.373 115.908 128.889 115.533 129.392C115.872 129.167 116.259 129.014 116.695 128.931C117.134 128.845 117.581 128.867 118.035 128.996C118.486 129.121 118.903 129.396 119.286 129.822C119.661 130.237 119.889 130.702 119.971 131.218C120.054 131.733 119.982 132.262 119.757 132.804C119.531 133.346 119.142 133.862 118.59 134.352L114.744 137.765ZM114.906 135.57L117.562 133.213C117.995 132.829 118.241 132.427 118.301 132.006C118.362 131.585 118.233 131.199 117.916 130.848C117.539 130.429 117.12 130.209 116.66 130.186C116.197 130.161 115.75 130.34 115.318 130.723L112.661 133.08L114.906 135.57ZM111.691 132.004L113.837 130.099C114.174 129.801 114.421 129.499 114.58 129.194C114.735 128.885 114.799 128.588 114.771 128.303C114.743 128.011 114.622 127.745 114.406 127.506C114.098 127.165 113.714 127.025 113.253 127.086C112.788 127.144 112.305 127.396 111.802 127.842L109.656 129.746L111.691 132.004ZM119.567 124.18L121.904 122.106C122.86 121.257 123.809 120.849 124.749 120.882C125.69 120.914 126.494 121.299 127.159 122.038C127.597 122.523 127.882 123.065 128.013 123.663C128.142 124.258 128.093 124.869 127.866 125.494C127.636 126.116 127.202 126.709 126.565 127.275L123.144 130.311L115.839 122.209L117.092 121.096L123.351 128.038L125.518 126.115C126.014 125.675 126.304 125.183 126.388 124.64C126.472 124.097 126.331 123.621 125.963 123.214C125.576 122.785 125.101 122.576 124.538 122.588C123.975 122.6 123.446 122.826 122.95 123.266L120.613 125.34L119.567 124.18ZM135 120.093C134.214 120.791 133.38 121.221 132.499 121.382C131.619 121.537 130.744 121.44 129.875 121.091C129.006 120.735 128.197 120.142 127.449 119.312C126.701 118.482 126.193 117.616 125.927 116.712C125.661 115.803 125.643 114.926 125.872 114.084C126.101 113.235 126.584 112.484 127.32 111.83C127.745 111.453 128.228 111.151 128.769 110.924C129.311 110.697 129.894 110.591 130.519 110.606C131.141 110.617 131.786 110.791 132.454 111.129C133.122 111.467 133.797 112.014 134.479 112.77L134.954 113.298L128.665 118.879L127.694 117.803L132.709 113.353C132.297 112.896 131.837 112.569 131.33 112.374C130.826 112.176 130.312 112.122 129.788 112.213C129.268 112.301 128.782 112.546 128.328 112.949C127.829 113.392 127.508 113.898 127.365 114.468C127.223 115.031 127.23 115.594 127.387 116.158C127.544 116.721 127.824 117.226 128.227 117.672L128.874 118.39C129.425 119.001 129.999 119.426 130.595 119.663C131.192 119.893 131.781 119.949 132.364 119.831C132.943 119.71 133.485 119.425 133.992 118.975C134.321 118.683 134.577 118.373 134.761 118.046C134.944 117.712 135.049 117.366 135.076 117.007C135.1 116.644 135.038 116.275 134.89 115.899L136.406 115.162C136.646 115.683 136.755 116.232 136.733 116.808C136.708 117.381 136.552 117.95 136.265 118.516C135.974 119.077 135.553 119.603 135 120.093Z" fill="#1D1D1D"/>
</svg>
