<svg width="20" height="20" viewBox="0 0 20 20" fill="none" xmlns="http://www.w3.org/2000/svg">
<path d="M10 1.77473C12.6506 1.77473 13.0121 1.77473 14.0964 1.77473C15.0602 1.77473 15.5422 2.01136 15.9036 2.12967C16.3855 2.3663 16.747 2.48462 17.1084 2.83956C17.4699 3.19451 17.7108 3.54946 17.8313 4.02272C17.9518 4.37766 18.0723 4.85092 18.1928 5.79744C18.1928 6.86228 18.1928 7.09891 18.1928 9.82016C18.1928 12.5414 18.1928 12.778 18.1928 13.8429C18.1928 14.7894 17.9518 15.2627 17.8313 15.6176C17.5904 16.0909 17.4699 16.4458 17.1084 16.8008C16.747 17.1557 16.3855 17.3923 15.9036 17.5106C15.5422 17.629 15.0602 17.7473 14.0964 17.8656C13.0121 17.8656 12.7711 17.8656 10 17.8656C7.22892 17.8656 6.98795 17.8656 5.90362 17.8656C4.93976 17.8656 4.45783 17.629 4.09639 17.5106C3.61446 17.274 3.25301 17.1557 2.89157 16.8008C2.53012 16.4458 2.28916 16.0909 2.16868 15.6176C2.04819 15.2627 1.92771 14.7894 1.80723 13.8429C1.80723 12.778 1.80723 12.5414 1.80723 9.82016C1.80723 7.09891 1.80723 6.86228 1.80723 5.79744C1.80723 4.85092 2.04819 4.37766 2.16868 4.02272C2.40964 3.54946 2.53012 3.19451 2.89157 2.83956C3.25301 2.48462 3.61446 2.24799 4.09639 2.12967C4.45783 2.01136 4.93976 1.89304 5.90362 1.77473C6.98795 1.77473 7.3494 1.77473 10 1.77473ZM10 0C7.22892 0 6.98795 0 5.90362 0C4.81928 0 4.09639 0.236631 3.49398 0.473261C2.89157 0.709892 2.28916 1.06484 1.68675 1.65641C1.08434 2.24799 0.843374 2.72125 0.481928 3.43114C0.240965 4.02272 0.120482 4.73261 0 5.79744C0 6.86228 0 7.21723 0 9.82016C0 12.5414 0 12.778 0 13.8429C0 14.9077 0.240965 15.6176 0.481928 16.2092C0.722892 16.8008 1.08434 17.3923 1.68675 17.9839C2.28916 18.5755 2.77109 18.8121 3.49398 19.1671C4.09639 19.4037 4.81928 19.522 5.90362 19.6403C6.98795 19.6403 7.3494 19.6403 10 19.6403C12.6506 19.6403 13.0121 19.6403 14.0964 19.6403C15.1807 19.6403 15.9036 19.4037 16.506 19.1671C17.1084 18.9304 17.7108 18.5755 18.3133 17.9839C18.9157 17.3923 19.1566 16.9191 19.5181 16.2092C19.759 15.6176 19.8795 14.9077 20 13.8429C20 12.778 20 12.4231 20 9.82016C20 7.21723 20 6.86228 20 5.79744C20 4.73261 19.759 4.02272 19.5181 3.43114C19.2771 2.83956 18.9157 2.24799 18.3133 1.65641C17.7108 1.06484 17.2289 0.828207 16.506 0.473261C15.9036 0.236631 15.1807 0.118315 14.0964 0C13.0121 0 12.7711 0 10 0Z" fill="url(#paint0_linear_250_634)"/>
<path d="M10 4.73261C7.10843 4.73261 4.81928 6.9806 4.81928 9.82016C4.81928 12.6597 7.10843 14.9077 10 14.9077C12.8916 14.9077 15.1807 12.6597 15.1807 9.82016C15.1807 6.9806 12.8916 4.73261 10 4.73261ZM10 13.133C8.19277 13.133 6.62651 11.7132 6.62651 9.82016C6.62651 8.04543 8.07229 6.50733 10 6.50733C11.8072 6.50733 13.3735 7.92712 13.3735 9.82016C13.3735 11.5949 11.8072 13.133 10 13.133Z" fill="url(#paint1_linear_250_634)"/>
<path d="M15.3012 5.79744C15.9666 5.79744 16.506 5.26773 16.506 4.61429C16.506 3.96086 15.9666 3.43114 15.3012 3.43114C14.6358 3.43114 14.0964 3.96086 14.0964 4.61429C14.0964 5.26773 14.6358 5.79744 15.3012 5.79744Z" fill="url(#paint2_linear_250_634)"/>
<defs>
<linearGradient id="paint0_linear_250_634" x1="0.909091" y1="1.762" x2="24.1583" y2="10.7078" gradientUnits="userSpaceOnUse">
<stop stop-color="#EB543C"/>
<stop offset="0.548077" stop-color="#C5AA24"/>
</linearGradient>
<linearGradient id="paint1_linear_250_634" x1="0.909091" y1="1.762" x2="24.1583" y2="10.7078" gradientUnits="userSpaceOnUse">
<stop stop-color="#EB543C"/>
<stop offset="0.548077" stop-color="#C5AA24"/>
</linearGradient>
<linearGradient id="paint2_linear_250_634" x1="0.909091" y1="1.762" x2="24.1583" y2="10.7078" gradientUnits="userSpaceOnUse">
<stop stop-color="#EB543C"/>
<stop offset="0.548077" stop-color="#C5AA24"/>
</linearGradient>
</defs>
</svg>
