<svg width="51" height="95" viewBox="0 0 51 95" fill="none" xmlns="http://www.w3.org/2000/svg">
<path d="M39.3401 26.9277C39.3652 26.9332 39.4176 27.1421 39.4719 27.1826C39.571 27.2555 39.3732 26.864 39.5354 27.04C39.5653 27.0738 39.7235 27.4468 39.7229 27.4609L39.7219 27.46C39.6162 27.4848 39.2028 26.918 39.3401 26.9277Z" fill="url(#paint0_linear_2063_1178)"/>
<path d="M11.3752 37.2705C11.3714 37.4111 10.9748 37.88 10.9485 37.749C10.9444 37.7234 11.139 37.6234 11.1643 37.5596C11.2091 37.4442 10.8766 37.7308 11.0071 37.5283C11.0323 37.4908 11.3572 37.2497 11.3713 37.2471L11.3752 37.2705Z" fill="url(#paint1_linear_2063_1178)"/>
<path fill-rule="evenodd" clip-rule="evenodd" d="M37.1145 1.10938C52.2906 20.9043 53.2765 39.36 48.1741 54.374C43.2869 68.7541 32.8701 79.8321 24.4133 85.9189C25.1572 88.7598 26.1782 91.217 27.4973 93.2305L24.7961 95C23.141 92.4735 21.9527 89.4631 21.136 86.1289C10.3395 77.0614 4.21068 68.0043 1.5686 59.2324C-1.11271 50.3297 -0.157677 41.8725 2.92699 34.2402C9.05737 19.0725 23.6125 7.09284 35.0442 0.683594L36.2639 0L37.1145 1.10938ZM36.3372 5.49219C33.7416 12.9329 30.7841 22.6308 28.301 32.9893C28.3788 32.8944 28.5373 32.9558 28.634 32.8975C28.7208 32.8441 28.7828 32.7338 28.8704 32.6914C28.9751 32.6417 29.1042 32.6652 29.1926 32.5947C29.1992 32.5841 29.0927 32.4321 29.1038 32.4229C29.2243 32.325 29.367 32.2646 29.5637 32.2949C29.5848 32.303 29.6515 32.4502 29.676 32.4619C29.8268 32.5305 30.1218 32.733 29.7991 32.0869C29.868 32.0783 29.9503 32.0633 30.0735 32.1582C30.1529 32.2198 30.215 32.3927 30.2141 32.3037C30.2138 32.2837 30.1229 32.1561 30.1282 32.1357C30.1536 32.0533 30.2397 32.0605 30.2522 31.958C30.2542 31.9365 30.1785 31.8171 30.1682 31.793C30.0893 31.6021 30.3058 31.8634 30.3303 31.8818C30.4981 31.9962 30.515 31.9031 30.5852 31.8662C30.5985 31.8547 30.4852 31.7053 30.4973 31.6914C30.5619 31.6212 30.6516 31.5863 30.7717 31.6123C30.7991 31.6204 30.867 31.7664 30.884 31.7764C30.9577 31.8177 30.8096 31.5521 30.8782 31.5879C30.8937 31.5982 30.9599 31.7163 30.969 31.7285C31.1125 31.9205 30.9558 31.6201 30.9573 31.6104C30.9726 31.4823 31.1988 31.759 31.2385 31.6768C31.2401 31.6634 31.1356 31.5278 31.1526 31.5078C31.2744 31.3785 31.4549 31.3264 31.6721 31.3594C31.7058 31.3656 31.7581 31.487 31.7678 31.5C31.9213 31.7033 31.7612 31.4031 31.762 31.3877C31.7728 31.2741 31.9738 31.485 31.8049 31.1143C32.1229 31.0867 32.2515 30.7458 32.6819 30.9102C32.6898 30.9171 32.7686 31.0587 32.7786 31.0615C32.9003 31.0964 32.7523 30.8821 32.6379 30.5801C32.6099 30.5052 32.8452 30.8102 32.8635 30.833C32.9292 30.915 33.0444 31.1365 33.0588 31.1514C33.1728 31.265 32.7452 30.5645 32.7893 30.5352C32.7946 30.5415 32.8632 30.6677 32.8752 30.6797C32.9111 30.7125 32.8926 30.6549 32.9309 30.6924C33.0199 30.7805 33.2356 31.1172 33.1565 30.8936C33.1461 30.8645 32.8974 30.4684 32.9495 30.4629C32.9714 30.4598 33.0383 30.4112 33.0735 30.4248C33.1092 30.4398 33.1732 30.5763 33.178 30.5811C33.3342 30.7192 33.3567 30.8027 33.5354 31.0391C33.7132 31.2739 33.3463 30.6789 33.3166 30.6045C33.2877 30.5312 33.4111 30.6482 33.4504 30.6914C33.4895 30.7346 33.5267 30.824 33.552 30.8467C33.7174 30.9924 33.3984 30.5341 33.3596 30.4268C33.2687 30.1741 33.5718 30.599 33.6389 30.6182C33.6529 30.619 33.5878 30.5276 33.5911 30.5117C33.6085 30.4526 33.7148 30.5763 33.6829 30.4229C33.6776 30.3977 33.5523 30.1083 33.6936 30.291C33.7141 30.318 33.7715 30.4329 33.803 30.4482C33.8501 30.4704 33.9099 30.468 33.9143 30.415C33.9166 30.3751 33.7854 30.2064 33.844 30.248C33.8703 30.2677 33.9145 30.3869 33.9582 30.4131C34.0018 30.4385 34.0518 30.4034 34.0696 30.3877C34.0856 30.3706 33.9934 30.24 33.9885 30.2285C33.9663 30.1691 33.9645 30.079 33.968 30.0771C34.1291 29.9581 34.4281 30.0972 34.5481 29.9199C34.5559 29.9043 34.4606 29.7643 34.4612 29.7607C34.4699 29.6749 34.6674 30.084 34.7766 30.1953C34.5938 29.9009 34.6445 29.9431 34.6565 29.8916C34.6615 29.8662 34.5859 29.7579 34.5793 29.7441C34.4972 29.5562 34.6478 29.7711 34.6799 29.8154C34.7965 29.9758 34.6925 29.7667 34.7707 29.874C34.8484 29.9807 34.9254 30.1609 34.9543 30.1406C34.8987 30.029 34.7104 29.7648 34.7063 29.7061C34.6909 29.4844 34.9818 29.6045 35.0657 29.5859C35.1482 29.5668 35.1604 29.5338 35.2239 29.5479C35.3368 29.5721 35.1884 29.3831 35.177 29.2617C35.166 29.1401 35.4478 29.6605 35.5198 29.7656C35.5914 29.8703 35.5315 29.7545 35.5754 29.8096C35.6192 29.8647 35.6468 29.9487 35.6789 29.96C35.7099 29.9684 35.6456 29.7464 35.5842 29.6289C35.4533 29.3789 35.278 29.1389 35.3811 29.1982C35.3891 29.2062 35.4579 29.3404 35.4768 29.3477C35.625 29.3979 35.7195 29.3509 35.8606 29.3896C35.881 29.3978 35.9586 29.5497 35.9709 29.5547C36.0992 29.6054 35.9242 29.3706 35.7971 29.0693C36.0101 29.4444 36.1677 29.6575 36.2239 29.627C36.2562 29.6074 36.1555 29.4502 36.1086 29.3242C36.0945 29.2861 36.1834 29.3822 36.1428 29.3047C36.0077 29.0479 35.8187 28.7826 35.9416 28.8594C35.9492 28.8671 36.0208 29.0031 36.0344 29.0068C36.121 29.0262 35.973 28.7636 36.0139 28.6963C36.0466 28.6445 36.2241 28.7509 36.2932 28.7451C36.5415 29.1613 36.5355 29.0362 36.384 28.7373C36.4254 28.7279 36.454 28.6896 36.511 28.709C36.5313 28.718 36.5954 28.8402 36.6047 28.8525C36.7489 29.0423 36.5977 28.7569 36.5979 28.7402C36.6153 28.5855 36.8083 28.7565 36.762 28.5039C36.7602 28.4948 36.5912 28.2028 36.7385 28.4014C36.7477 28.4147 36.7889 28.5269 36.8274 28.5479L36.8938 28.5596C36.9559 28.5788 37.0408 28.6105 37.0188 28.4883C37.0117 28.4487 36.902 28.1957 37.0364 28.3633C37.0547 28.3865 37.1007 28.4715 37.133 28.5146C37.2363 28.6517 37.0706 28.3557 37.2375 28.5928C37.4044 28.8296 37.5538 28.9925 37.5022 28.791C37.5008 28.7851 37.3742 28.5469 37.3918 28.54C37.4214 28.5312 37.4873 28.5575 37.5129 28.54C37.5221 28.5281 37.4314 28.3942 37.4309 28.3887C37.4688 28.2568 37.6071 28.3474 37.7327 28.3477C37.754 28.3439 37.6881 28.1247 37.8127 28.2588C37.951 28.4081 38.3368 29.1334 38.3186 28.916C38.3098 28.826 37.8169 27.9098 38.1545 28.3369C38.2019 28.1526 38.4519 28.3247 38.47 28.0908C38.4702 28.0793 38.3375 27.8204 38.3518 27.8164C38.3743 27.8133 38.453 27.9211 38.4709 27.9219C38.5459 27.9235 38.5374 27.7948 38.5989 27.7783C38.6228 27.7742 38.6884 27.8962 38.7161 27.8887C38.7418 27.8783 38.6647 27.7137 38.7424 27.7705C38.8025 27.8154 39.0223 28.1242 39.0774 28.1426C38.8862 27.8213 38.9118 27.8144 38.9006 27.7061C38.8979 27.6846 38.8234 27.5785 38.8186 27.5625C38.7992 27.4971 38.8675 27.5803 38.844 27.5098C38.8376 27.4916 38.7734 27.3837 38.7649 27.3633C38.6916 27.188 38.878 27.4113 38.9104 27.4502C39.0332 27.5971 38.9608 27.4477 39.0188 27.5C39.0765 27.5525 39.0958 27.6506 39.1418 27.6758C39.2368 27.727 39.2873 27.6732 39.3381 27.6494C39.356 27.6372 39.2572 27.5009 39.258 27.4961C39.2757 27.4359 39.4084 27.5662 39.2561 27.2627C39.7348 27.998 39.2366 27.1762 39.383 27.292C39.3978 27.3065 39.615 27.6547 39.6291 27.7168C39.6426 27.7781 39.5504 27.6839 39.5754 27.7793C39.5835 27.8061 39.7485 28.1522 39.7571 28.1768C39.8169 28.354 39.4962 27.8318 39.4739 27.7988C39.264 27.496 39.44 27.8791 39.4446 27.9102C39.4652 28.0519 39.3799 28.0016 39.3889 28.1064C39.3944 28.174 39.5973 28.5193 39.5745 28.5264C39.4854 28.5315 39.1706 28.06 39.3596 28.5195C39.4004 28.6182 39.6414 28.9888 39.4133 28.7197C39.3989 28.7027 39.1978 28.4512 39.2805 28.6367C39.2911 28.6602 39.3559 28.7685 39.3596 28.7822C39.3724 28.8564 39.304 28.7784 39.3039 28.8359C39.3039 28.8933 39.3107 28.9732 39.26 28.9541C39.2291 28.9422 39.0826 28.7506 39.0432 28.7041C38.9321 28.5726 39.0503 28.8255 38.9299 28.6582C38.8088 28.4898 38.6752 28.203 38.5676 28.1113C38.7392 28.4004 38.9135 28.699 39.0852 28.9902C38.9943 29.0309 38.8543 28.9883 38.7766 29.0518C38.7684 29.0613 38.8697 29.2073 38.8635 29.2217C38.8304 29.2743 38.723 29.1901 38.6995 29.2627C38.6819 29.3202 38.7378 29.5093 38.7229 29.5752C38.5013 29.2614 38.5072 29.4075 38.4465 29.4043C38.4251 29.4026 38.373 29.3147 38.345 29.292C38.241 29.2106 38.4342 29.4885 38.4514 29.542C38.5208 29.7656 38.1226 29.1134 38.0745 29.1602C38.0788 29.177 38.2454 29.5344 38.2541 29.5605C38.3075 29.7215 38.1762 29.4441 38.1399 29.4277C38.0749 29.4021 37.9988 29.3332 38.0178 29.4619C38.0237 29.5 38.1249 29.7364 37.9993 29.582C37.9828 29.5616 37.9171 29.4485 37.9084 29.4395C37.7938 29.3539 38.0121 29.7197 38.0598 29.8594C38.1071 29.9982 37.9149 29.7721 37.8625 29.7041C37.7283 29.5298 37.8306 29.6121 37.8215 29.5938C37.7045 29.3676 37.6958 29.4211 37.6623 29.417C37.4441 29.061 37.4252 29.1022 37.6282 29.4141C37.6499 29.4468 37.6481 29.4037 37.6623 29.417C37.853 29.7802 37.8443 29.8467 37.6086 29.542C37.4982 29.3991 37.4077 29.2093 37.3918 29.3076C37.3846 29.3523 37.5425 29.5933 37.5608 29.6738C37.6021 29.857 37.3992 29.6677 37.3684 29.7344C37.3576 29.7589 37.4566 29.8824 37.4524 29.9043C37.44 29.9614 37.3493 29.8788 37.3459 29.9512C37.3494 29.9629 37.4352 30.0919 37.428 30.1025C37.3568 30.1674 37.2319 30.1202 37.1457 30.168C37.1043 30.1913 37.0771 30.3126 37.0256 30.3232C36.9364 30.341 36.7228 30.1903 36.6897 30.2773C36.6681 30.3339 36.7617 30.4694 36.802 30.5762C36.8798 30.7823 36.6206 30.4866 36.5803 30.4385C36.579 30.4369 36.5935 30.3824 36.5315 30.3213C36.4299 30.1768 36.5803 30.4385 36.5803 30.4385C36.555 30.4083 36.4666 30.4181 36.468 30.4531C36.4693 30.4722 36.5514 30.6003 36.553 30.6113C36.5308 30.7874 36.4561 30.878 36.3235 30.873C36.3178 30.867 36.2349 30.7257 36.2258 30.7188C36.1308 30.6855 36.2051 30.8893 36.2248 31.0254C36.2445 31.1614 36.1863 31.1469 36.0051 30.9062C35.9899 30.9586 35.8727 30.8751 35.803 30.8232C35.7333 30.7714 35.9037 31.0636 35.9055 31.0723C35.9382 31.303 35.793 31.1648 35.6965 31.1865C35.6504 31.1967 35.5999 31.2849 35.5774 31.3418C35.5599 31.387 35.4985 31.3309 35.4944 31.3926C35.495 31.4025 35.5756 31.5285 35.5774 31.5342C35.6362 31.7084 35.4639 31.3842 35.4221 31.3301C35.2732 31.1393 35.1916 31.0386 35.2063 31.1611C35.2098 31.1896 35.4542 31.6639 35.4524 31.7021C35.4486 31.7488 35.3597 31.5815 35.3586 31.6357C35.3613 31.6446 35.4173 31.7386 35.4016 31.7451C35.3192 31.7683 35.2067 31.7567 35.1389 31.8105C35.1295 31.8175 35.236 31.9686 35.2258 31.9834C35.169 32.0431 35.0899 32.0816 34.9788 32.0469C34.9509 32.0367 34.8939 31.9201 34.8704 31.8887C34.728 31.7008 34.8721 32.0098 34.8713 32.0205C34.8337 32.2338 34.5812 32.0255 34.5325 32.2256C34.5301 32.2371 34.6663 32.5821 34.4817 32.3271C34.469 32.3097 34.2816 32.0486 34.3743 32.249C34.3816 32.2635 34.4767 32.393 34.4455 32.3955C34.4119 32.3961 34.4277 32.5147 34.3 32.3799C34.2595 32.3371 34.0692 32.0779 34.1682 32.3164C34.1775 32.3376 34.4212 32.8564 34.1995 32.5273C34.1627 32.4727 33.9495 32.1094 34.0217 32.3174C34.036 32.3578 34.0979 32.4311 34.1086 32.4932C34.1251 32.5882 34.0274 32.5157 34.0872 32.6982C34.0981 32.7312 34.2174 32.9918 34.0842 32.8193C34.0632 32.7918 33.998 32.6696 33.9778 32.6611C33.8843 32.6295 33.8742 32.7438 33.7688 32.6943C33.7311 32.6755 33.6244 32.476 33.5725 32.4355C33.5205 32.3957 33.4487 32.3707 33.4807 32.4727C33.5129 32.5748 33.7227 32.8709 33.7063 32.916C33.631 33.1082 33.382 33.0095 33.2258 33.0664C33.2034 33.0752 33.2849 33.1745 33.258 33.1963C33.1502 33.2723 33.0173 33.4935 32.7776 33.3164C32.5857 33.1743 32.597 32.9704 32.4914 32.9287C32.4407 32.9094 32.6245 33.2865 32.6262 33.3057C32.6274 33.4622 32.4835 33.3315 32.4514 33.417C32.4454 33.4351 32.5425 33.5708 32.5383 33.5869C32.5168 33.6343 32.4398 33.5937 32.4114 33.626C32.3992 33.6409 32.4655 33.7469 32.4495 33.751C32.4031 33.7525 32.3431 33.724 32.2463 33.6396C32.2368 33.63 32.1747 33.4822 32.1457 33.4902C32.0991 33.5068 31.9863 33.4354 32.0022 33.5703C32.0073 33.6111 32.1599 33.8668 32.0237 33.709C31.9948 33.6753 31.819 33.3647 31.9426 33.6514C31.9641 33.7017 32.1169 34.0908 31.9504 33.8799C31.9062 33.8238 31.7348 33.584 31.7414 33.6338C31.7445 33.6436 31.8341 33.7719 31.8293 33.7949C31.8063 33.8697 31.7445 33.8873 31.719 33.9609C31.7137 33.9819 31.817 34.1095 31.8059 34.1357C31.7714 34.2052 31.6793 34.2116 31.5979 34.2002C31.568 34.1957 31.5114 34.072 31.5012 34.0576C31.3527 33.8637 31.5063 34.1515 31.509 34.1738C31.5191 34.3013 31.4035 34.1924 31.3791 34.2539C31.3723 34.2707 31.4613 34.3996 31.4661 34.4131C31.51 34.5441 31.386 34.2961 31.3528 34.2764C31.2623 34.2286 31.2176 34.2698 31.1819 34.3145C31.1701 34.332 31.2793 34.4731 31.2688 34.4883C31.1951 34.5689 31.0922 34.61 30.9534 34.5771C30.9271 34.5706 30.8651 34.4449 30.845 34.4189C30.7066 34.2422 30.8283 34.524 30.8352 34.5537C30.8669 34.6887 30.7903 34.5926 30.7698 34.6309C30.672 34.8233 30.4351 34.8695 30.261 34.915C30.0349 34.9749 29.8168 34.9515 29.6506 35.0908C29.6401 35.0994 29.744 35.2481 29.7395 35.2617C29.6324 35.3782 29.4664 35.3935 29.3635 35.5176C29.3549 35.5275 29.46 35.6683 29.4504 35.6904C29.4291 35.7344 29.379 35.753 29.3147 35.7266C29.2835 35.7138 29.2286 35.5713 29.1985 35.5596C29.1288 35.5355 29.0783 35.5515 29.051 35.6006C29.0418 35.6232 29.1563 35.7572 29.1379 35.7754C28.9895 35.8853 28.8498 36.0046 28.5705 35.9004C28.5508 35.8923 28.3535 35.5851 28.3664 35.6592C28.417 35.7473 28.4784 35.8499 28.5334 35.9434C28.3341 36.1312 28.0413 36.1591 27.801 36.2803C27.791 36.2854 27.9052 36.4397 27.8889 36.4531C27.7787 36.5159 27.6997 36.6247 27.4895 36.5264C27.4877 36.5253 27.4863 36.5211 27.4827 36.5166C27.0026 38.6454 26.5425 40.7932 26.1164 42.9482C23.2823 57.2832 21.8439 71.6949 23.675 82.4482C31.4964 76.5042 40.7131 66.2952 45.1174 53.3359C49.6653 39.9539 49.1379 23.4995 36.3372 5.49219ZM32.8205 5.77832C22.5169 12.3363 11.0206 22.8306 5.92016 35.4502C3.07007 42.5022 2.22075 50.2003 4.66039 58.3008C6.83134 65.5087 11.6451 73.1532 20.1916 81.0039C19.0262 72.1226 19.7743 61.3762 21.4924 50.4902C21.4649 50.439 21.449 50.376 21.4426 50.3145C21.4391 50.2768 21.5237 50.213 21.5247 50.1836C21.5255 50.1264 21.4624 50.1364 21.469 50.0742C21.4714 50.0581 21.5418 49.9906 21.5784 49.9512C21.5825 49.9254 21.5869 49.8998 21.5911 49.874C21.5697 49.8114 21.5155 49.7851 21.4924 49.7217C21.3521 49.3322 21.1361 49.0264 20.9221 48.7041C20.8517 48.598 20.851 48.3835 20.7131 48.3389C20.6968 48.3342 20.6008 48.4421 20.5881 48.4512C20.4256 48.5502 20.6464 48.3504 20.6536 48.3018C20.6813 48.1095 20.5989 48.0081 20.4797 47.9688C20.4286 47.9524 20.2552 48.1928 20.3372 48.043C20.3448 48.0311 20.4626 47.93 20.4651 47.9092C20.4702 47.8621 20.4112 47.8413 20.4036 47.8164C20.3898 47.7682 20.3827 47.7638 20.3547 47.7334C20.317 47.6903 20.3229 47.5874 20.2551 47.5684C20.2403 47.5648 20.1395 47.6883 20.1047 47.6943C20.0706 47.6988 20.0414 47.6503 20.0549 47.6104C20.0689 47.5702 20.1628 47.4866 20.1809 47.4639C20.3312 47.2757 20.0578 47.4601 20.0383 47.4658C19.8314 47.46 19.8755 47.2325 19.7756 47.1328C19.6993 47.0578 19.5731 47.0214 19.5071 46.9434C19.4291 46.8497 19.4172 46.7156 19.3235 46.6426C19.3138 46.6349 19.1945 46.7728 19.1789 46.7686C19.0491 46.6697 18.9498 46.5418 18.926 46.3379C18.9238 46.3173 19.0544 46.2154 19.0598 46.1875C19.0863 46.0214 19.2064 45.6798 18.6555 46.1475C18.6281 46.0803 18.5913 46.0022 18.6516 45.8574C18.6906 45.7643 18.8435 45.6634 18.7571 45.6836C18.7376 45.6881 18.6372 45.8073 18.6145 45.8086C18.526 45.8017 18.509 45.7136 18.4045 45.7236C18.3824 45.727 18.2864 45.8275 18.2649 45.8438C18.0965 45.9664 18.2983 45.6896 18.3088 45.6621C18.3761 45.4688 18.2786 45.4728 18.2229 45.4111C18.2102 45.3968 18.0936 45.5437 18.0745 45.5381C17.987 45.4891 17.9282 45.4067 17.9211 45.2803C17.92 45.2519 18.0463 45.1521 18.053 45.1318C18.0744 45.048 17.8517 45.2564 17.8684 45.1797C17.8725 45.1632 17.9722 45.0703 17.9827 45.0576C18.131 44.8738 17.885 45.0879 17.8684 45.0947C17.7379 45.1079 17.9484 44.8213 17.8577 44.7988C17.8455 44.7981 17.7395 44.9327 17.7141 44.9219C17.5527 44.8289 17.4518 44.6606 17.425 44.4355C17.4208 44.4007 17.5278 44.3215 17.5383 44.3086C17.6948 44.1127 17.4513 44.3295 17.4289 44.3389C17.3134 44.3537 17.467 44.1057 17.1467 44.3574C17.0329 44.0446 16.6601 43.9927 16.7053 43.5244C16.7112 43.514 16.828 43.4053 16.8284 43.3945C16.8302 43.2636 16.6586 43.4603 16.3909 43.6426C16.3239 43.688 16.5621 43.3834 16.5793 43.3604C16.6425 43.2762 16.8304 43.1115 16.8411 43.0938C16.9221 42.9545 16.3472 43.537 16.3049 43.501C16.3101 43.494 16.4179 43.3964 16.425 43.3828C16.4478 43.3395 16.3953 43.3711 16.4221 43.3242C16.485 43.2155 16.7578 42.925 16.5588 43.0537C16.5313 43.0725 16.2099 43.4073 16.1897 43.3574C16.1821 43.3368 16.1144 43.2801 16.1184 43.2412C16.1229 43.2027 16.2382 43.1105 16.2444 43.1025C16.3383 42.915 16.4148 42.8736 16.5998 42.6416C16.783 42.4118 16.2963 42.9104 16.2297 42.958C16.1653 43.0033 16.2464 42.8541 16.2786 42.8047C16.3106 42.756 16.389 42.6983 16.4045 42.668C16.5036 42.4697 16.137 42.8908 16.0413 42.9541C15.8169 43.1011 16.1532 42.7049 16.1545 42.6328C16.1545 42.614 16.0806 42.7021 16.0627 42.7041C15.9991 42.7002 16.0923 42.5657 15.9495 42.6318C15.9252 42.6434 15.6744 42.8318 15.8157 42.6504C15.8367 42.6239 15.9361 42.5408 15.9426 42.5059C15.9518 42.4538 15.9324 42.3954 15.8791 42.4023C15.8392 42.4085 15.7085 42.5777 15.7336 42.5098C15.7455 42.4791 15.8515 42.4082 15.8655 42.3584C15.879 42.3091 15.8294 42.2675 15.8088 42.2529C15.7884 42.2394 15.6855 42.3599 15.6741 42.3691C15.623 42.4035 15.5384 42.4243 15.5305 42.4229C15.3686 42.2884 15.4237 41.9589 15.2161 41.8779C15.1996 41.8729 15.0939 41.9915 15.0832 42C14.9938 42.0118 15.3456 41.7215 15.426 41.5869C15.1858 41.8349 15.2118 41.7763 15.1584 41.7754C15.1321 41.7761 15.0459 41.8753 15.0334 41.8857C14.8703 42.0099 15.0425 41.8115 15.0774 41.7695C15.204 41.6171 15.0248 41.7674 15.1096 41.665C15.1935 41.5638 15.3499 41.4469 15.3235 41.4219C15.2287 41.5022 15.0203 41.7483 14.9622 41.7676C14.7467 41.8329 14.7859 41.513 14.7444 41.4336C14.7029 41.355 14.6668 41.3517 14.6633 41.2852C14.6572 41.1648 14.5109 41.3563 14.3938 41.3955C14.2765 41.4338 14.7137 41.0351 14.7981 40.9395C14.8819 40.8445 14.784 40.9303 14.8264 40.874C14.869 40.8179 14.9452 40.7711 14.9475 40.7363C14.9479 40.7031 14.7454 40.8175 14.6457 40.9053C14.4343 41.0923 14.2442 41.3216 14.2747 41.2051C14.2797 41.1957 14.3941 41.0971 14.3967 41.0762C14.4061 40.9164 14.3336 40.8325 14.3332 40.6826C14.3337 40.6618 14.463 40.5498 14.4661 40.5352C14.4816 40.3946 14.2977 40.6227 14.0344 40.8174C14.3461 40.5211 14.5134 40.3157 14.469 40.2656C14.4417 40.2359 14.3137 40.3737 14.2014 40.4492C14.1676 40.4719 14.2376 40.3609 14.1721 40.4189C13.9551 40.6117 13.745 40.8601 13.7873 40.7197C13.7939 40.7096 13.908 40.6077 13.9075 40.5938C13.9037 40.5017 13.684 40.7085 13.6057 40.6836C13.5453 40.6625 13.6033 40.4602 13.5784 40.3926C13.9216 40.0513 13.7991 40.0864 13.5452 40.3047C13.5248 40.2649 13.4791 40.2453 13.4827 40.1836C13.4841 40.1623 13.5904 40.0696 13.5998 40.0576C13.7464 39.8729 13.5096 40.0828 13.4895 40.0898C13.3321 40.1067 13.4479 39.876 13.2112 39.9785C13.2007 39.9842 12.9611 40.2155 13.1164 40.0244C13.1291 40.0102 13.257 39.9245 13.2346 39.8848C13.2122 39.8439 13.2783 39.659 13.1252 39.7246C13.0871 39.7414 12.8684 39.9062 12.9973 39.7344C13.0154 39.7107 13.0866 39.6455 13.1204 39.6035C13.2274 39.4697 12.9807 39.7023 13.1692 39.4824C13.3577 39.2625 13.4778 39.0766 13.2932 39.1729C13.2877 39.1755 13.0887 39.3531 13.0754 39.3389C13.0584 39.3119 13.0659 39.2413 13.0422 39.2188C13.0308 39.2086 12.9234 39.3279 12.9143 39.334C12.7737 39.3255 12.8262 39.1667 12.7922 39.041C12.7862 39.0177 12.5824 39.1366 12.6819 38.9805C12.7918 38.8088 13.4017 38.2623 13.1946 38.3271C13.1102 38.3537 12.3352 39.0549 12.6653 38.6211C12.4702 38.615 12.5716 38.3267 12.3362 38.3604C12.3238 38.3636 12.1139 38.5452 12.0979 38.54C12.0866 38.5197 12.1738 38.4144 12.1692 38.3965C12.1506 38.3205 12.0245 38.3589 11.9914 38.3008C11.9794 38.2786 12.0837 38.1858 12.0696 38.1592C12.0544 38.133 11.9098 38.2498 11.9446 38.1592C11.9721 38.0894 12.2179 37.8012 12.2219 37.7412C11.9571 38.0038 11.9417 37.9795 11.8381 38.0146C11.8178 38.0221 11.7345 38.1191 11.719 38.1289C11.6592 38.1634 11.7223 38.0764 11.6594 38.1152C11.6433 38.1256 11.5549 38.2137 11.5364 38.2275C11.3831 38.34 11.5525 38.1038 11.5823 38.0625C11.694 37.9066 11.5669 38.0131 11.6028 37.9434C11.6388 37.8737 11.7301 37.8321 11.7424 37.7803C11.7672 37.674 11.7008 37.6352 11.6633 37.5898C11.6482 37.5726 11.5438 37.6969 11.5334 37.7041C11.4686 37.7003 11.5612 37.5378 11.303 37.7578C11.8988 37.1146 11.222 37.7973 11.2971 37.624C11.3097 37.6038 11.5921 37.3125 11.6497 37.2842C11.7066 37.2569 11.6386 37.3694 11.7258 37.3232C11.7504 37.3091 12.0502 37.0655 12.0705 37.0527C12.2282 36.9544 11.7995 37.3919 11.7737 37.4209C11.5322 37.6981 11.86 37.4375 11.8909 37.4248C12.0252 37.3727 11.9996 37.469 12.1008 37.4365C12.1677 37.4143 12.4562 37.1308 12.4651 37.1572C12.4937 37.2458 12.1148 37.6653 12.5168 37.374C12.6034 37.3111 12.9048 36.9874 12.7014 37.2754C12.6885 37.2936 12.4941 37.5506 12.6545 37.4268C12.6756 37.4102 12.7669 37.3191 12.7776 37.3145C12.8465 37.2858 12.7882 37.3712 12.845 37.3584C12.9019 37.3455 12.9806 37.3211 12.9748 37.377C12.9704 37.4117 12.8202 37.6001 12.7854 37.6494C12.6862 37.7895 12.9049 37.6159 12.7727 37.7734C12.6392 37.9325 12.3915 38.1296 12.3303 38.2578C12.5693 38.0215 12.8168 37.7799 13.0579 37.543C13.1228 37.625 13.1184 37.7744 13.2024 37.8379C13.2159 37.8415 13.3324 37.7081 13.3469 37.7129C13.4078 37.7346 13.3539 37.8614 13.4329 37.8682C13.4952 37.8722 13.6669 37.7747 13.7356 37.7754C13.4851 38.0683 13.6281 38.0277 13.6409 38.0898C13.6452 38.1116 13.5725 38.1837 13.5579 38.2168C13.506 38.3387 13.7284 38.0839 13.7766 38.0547C13.9782 37.9359 13.4393 38.4819 13.5012 38.5176C13.5164 38.5097 13.8269 38.2605 13.8489 38.2471C13.9925 38.1583 13.7533 38.3523 13.7483 38.3916C13.7408 38.4624 13.6936 38.5537 13.8157 38.5059C13.8536 38.4898 14.0572 38.3388 13.9397 38.498C13.9241 38.519 13.8293 38.6111 13.8235 38.6211C13.7702 38.755 14.0724 38.455 14.1975 38.376C14.3213 38.2982 14.1499 38.5399 14.0969 38.6074C13.962 38.7798 14.0152 38.662 14.0002 38.6738C13.8077 38.8423 13.8636 38.8372 13.8684 38.8721C13.5758 39.1703 13.6213 39.1802 13.8743 38.9072C13.9011 38.8779 13.8589 38.8895 13.8684 38.8721C14.1752 38.6002 14.2428 38.5936 14.0061 38.8975C13.8949 39.0401 13.7322 39.1733 13.8342 39.167C13.8817 39.162 14.0751 38.9536 14.1497 38.917C14.3189 38.8352 14.1879 39.0796 14.262 39.0957C14.29 39.0993 14.3851 38.9738 14.4075 38.9736C14.4664 38.9739 14.4104 39.0831 14.4827 39.0703C14.4932 39.0643 14.6 38.9455 14.6106 38.9531C14.6939 39.0102 14.681 39.1463 14.7522 39.2217C14.7871 39.2579 14.914 39.258 14.9377 39.3076C14.9793 39.3934 14.8891 39.641 14.9846 39.6543C15.0466 39.6625 15.1559 39.5386 15.2502 39.4746C15.4321 39.3514 15.2105 39.6768 15.1741 39.7275C15.1729 39.7292 15.1141 39.7259 15.0705 39.8018C14.9554 39.9358 15.1741 39.7275 15.1741 39.7275C15.1511 39.7597 15.1856 39.8471 15.22 39.8369C15.2407 39.8286 15.3448 39.7171 15.3528 39.7158C15.5329 39.6988 15.643 39.7534 15.6741 39.8877C15.6678 39.8964 15.5492 40.0109 15.5471 40.0195C15.5403 40.1221 15.7226 40.0013 15.8518 39.9512C15.98 39.9017 15.9812 39.9636 15.7932 40.1982C15.8487 40.2023 15.799 40.3387 15.7668 40.4199C15.7352 40.5006 15.9787 40.2643 15.9856 40.2617C16.2042 40.1779 16.1059 40.3539 16.1545 40.4453C16.1775 40.4891 16.2788 40.5205 16.3411 40.5303C16.3895 40.5382 16.352 40.6108 16.4133 40.6016C16.4248 40.5965 16.5227 40.4923 16.5305 40.4863C16.6866 40.3886 16.413 40.634 16.3713 40.6875C16.2233 40.8793 16.1466 40.9836 16.2639 40.9414C16.2952 40.9277 16.6905 40.583 16.7307 40.5742C16.7773 40.568 16.6375 40.6933 16.6907 40.6826C16.699 40.6777 16.779 40.5987 16.7883 40.6152C16.8337 40.6928 16.8529 40.8087 16.925 40.8643C16.9405 40.8636 17.056 40.7283 17.0715 40.7373C17.1462 40.7809 17.2065 40.8515 17.2024 40.9707C17.2009 41.0005 17.0993 41.0844 17.0745 41.1152C16.9293 41.2978 17.1901 41.0895 17.2043 41.085C17.4252 41.0752 17.2891 41.3739 17.5002 41.3779C17.5193 41.3724 17.8134 41.1676 17.6145 41.4062C17.5996 41.4242 17.3943 41.6684 17.5666 41.5312C17.5793 41.5202 17.681 41.3956 17.6916 41.4268C17.7016 41.4601 17.8144 41.4184 17.7161 41.5762C17.6845 41.6266 17.4812 41.8749 17.6897 41.7227C17.7107 41.7065 18.1532 41.3496 17.8899 41.6436C17.846 41.6924 17.545 41.9878 17.7307 41.8691C17.7667 41.8456 17.8221 41.7679 17.8801 41.7432C17.9693 41.7057 17.9257 41.8186 18.0901 41.7178C18.1223 41.6972 18.3428 41.5232 18.2102 41.6934C18.1891 41.7204 18.0837 41.8146 18.0823 41.8359C18.0765 41.9367 18.1925 41.9203 18.1721 42.0371C18.165 42.0784 17.9957 42.2308 17.97 42.292C17.9447 42.3529 17.9393 42.4298 18.0315 42.375C18.1239 42.3195 18.3592 42.0448 18.4084 42.0508C18.6186 42.0837 18.5894 42.3547 18.6887 42.498C18.7039 42.5182 18.7807 42.4128 18.8088 42.4375C18.9137 42.5284 19.1677 42.6122 19.0579 42.8916C18.9695 43.1155 18.7659 43.1492 18.7541 43.2646C18.7492 43.3193 19.0684 43.0539 19.0891 43.0459C19.2426 43.0103 19.1534 43.1821 19.2463 43.1953C19.2673 43.1952 19.3768 43.0658 19.3918 43.0693C19.4436 43.081 19.4246 43.1674 19.4641 43.1885C19.4836 43.1956 19.5729 43.1035 19.5784 43.123C19.5924 43.1692 19.5796 43.2351 19.5227 43.3506C19.5155 43.3624 19.3855 43.4577 19.4026 43.4844C19.4318 43.5274 19.3922 43.6569 19.5217 43.6104C19.5624 43.5939 19.7707 43.388 19.6526 43.5586C19.6264 43.5957 19.3682 43.8399 19.6174 43.6523C19.6617 43.6193 20.0047 43.3795 19.8411 43.5938C19.7977 43.6505 19.6085 43.8739 19.6545 43.8574C19.665 43.8503 19.7683 43.7332 19.7913 43.7344C19.8708 43.7411 19.9049 43.7977 19.9846 43.8066C20.0076 43.8058 20.1057 43.6744 20.134 43.6807C20.2119 43.7 20.2433 43.7909 20.2541 43.875C20.2578 43.9057 20.1528 43.9885 20.1399 44.0029C19.9884 44.1955 20.2328 43.9755 20.2532 43.9688C20.3751 43.9313 20.2997 44.0718 20.3674 44.082C20.3876 44.0823 20.4893 43.9666 20.5012 43.959C20.6181 43.8862 20.4052 44.0671 20.3967 44.1035C20.3743 44.2048 20.4267 44.2398 20.4807 44.2656C20.502 44.2723 20.6121 44.1312 20.6291 44.1396C20.7288 44.1954 20.7976 44.2892 20.803 44.4355C20.8037 44.4633 20.6963 44.5531 20.676 44.5791C20.5392 44.7569 20.7833 44.573 20.8118 44.5586C20.9363 44.497 20.8624 44.5969 20.9065 44.6084C21.1232 44.6636 21.2339 44.8887 21.3264 45.0527C21.4476 45.2661 21.4833 45.4908 21.6672 45.626C21.6814 45.6306 21.7985 45.4948 21.8118 45.498C21.956 45.5793 22.0164 45.7423 22.1672 45.8174C22.1808 45.8197 22.2764 45.7064 22.3088 45.6943C22.5138 44.5686 22.7268 43.4437 22.9485 42.3223C25.6187 28.8161 29.4669 15.5777 32.8205 5.77832ZM22.2541 45.9727C22.2537 45.9794 22.254 45.9859 22.2541 45.9922C22.2559 45.9824 22.2582 45.9727 22.26 45.9629C22.2576 45.967 22.2544 45.9695 22.2541 45.9727ZM16.9026 43.5146C17.1435 43.3177 17.0809 43.2092 16.8694 43.458C16.8589 43.4712 16.8903 43.5242 16.9026 43.5146ZM16.3977 42.415C16.5107 42.3002 16.4601 42.3136 16.3606 42.4248C16.3546 42.4315 16.3623 42.4509 16.3977 42.415ZM15.1418 41.3301C15.2854 41.2061 15.2597 41.1589 15.1282 41.3057C15.123 41.3117 15.1359 41.3352 15.1418 41.3301ZM13.0598 37.8906C13.1817 37.7269 12.848 38.0261 12.7991 38.0928C12.6423 38.309 12.9366 38.0557 13.0598 37.8906ZM12.0413 37.6768C12.1105 37.5857 11.9859 37.6477 11.8987 37.7617C11.8286 37.8536 11.9539 37.7911 12.0413 37.6768ZM32.7102 31.084C32.7002 31.0704 32.6433 31.0863 32.6497 31.1006C32.7838 31.3819 32.8995 31.3504 32.7102 31.084ZM33.7922 30.9053C33.8765 31.0432 33.8741 30.9913 33.7903 30.8672C33.7853 30.8598 33.766 30.8623 33.7922 30.9053ZM35.0793 29.9912C35.1655 30.1606 35.2151 30.1481 35.1047 29.9844C35.0995 29.9785 35.076 29.9843 35.0793 29.9912ZM38.6233 28.6006C38.4531 28.395 38.6289 28.7422 38.758 28.9023C38.8862 29.0611 38.6753 28.6637 38.6233 28.6006ZM39.1262 27.8291C39.0549 27.7387 39.0871 27.8744 39.176 27.9873C39.2469 28.0767 39.2149 27.9418 39.1262 27.8291Z" fill="url(#paint2_linear_2063_1178)"/>
<defs>
<linearGradient id="paint0_linear_2063_1178" x1="-20.6606" y1="-27.443" x2="105.318" y2="69.1304" gradientUnits="userSpaceOnUse">
<stop stop-color="#EA543C"/>
<stop offset="1" stop-color="#C5AA24"/>
</linearGradient>
<linearGradient id="paint1_linear_2063_1178" x1="-20.6606" y1="-27.443" x2="105.318" y2="69.1304" gradientUnits="userSpaceOnUse">
<stop stop-color="#EA543C"/>
<stop offset="1" stop-color="#C5AA24"/>
</linearGradient>
<linearGradient id="paint2_linear_2063_1178" x1="-20.6606" y1="-27.443" x2="105.318" y2="69.1304" gradientUnits="userSpaceOnUse">
<stop stop-color="#EA543C"/>
<stop offset="1" stop-color="#C5AA24"/>
</linearGradient>
</defs>
</svg>
