<svg width="19" height="22" viewBox="0 0 19 22" fill="none" xmlns="http://www.w3.org/2000/svg">
<path d="M18.9762 5.1591C17.5829 5.15906 16.2467 4.61549 15.2615 3.64798C14.2763 2.68046 13.7228 1.36825 13.7229 0H9.96951V14.4331C9.96881 15.0911 9.75723 15.7322 9.36475 16.2656C8.97227 16.7989 8.41881 17.1975 7.78281 17.4047C7.14681 17.6119 6.46053 17.6172 5.82124 17.42C5.18195 17.2228 4.62209 16.833 4.221 16.3059C3.8199 15.7788 3.59793 15.141 3.58654 14.4831C3.57515 13.8251 3.77492 13.1804 4.15753 12.6401C4.54014 12.0999 5.08619 11.6917 5.71828 11.4732C6.35037 11.2548 7.03644 11.2372 7.67925 11.4231V7.84013C6.31317 7.65924 4.9234 7.89192 3.69553 8.50709C2.46765 9.12226 1.46011 10.0907 0.807446 11.283C0.154777 12.4753 -0.111954 13.8347 0.0428692 15.1798C0.197692 16.5249 0.766701 17.7916 1.67391 18.8107C2.58113 19.8299 3.78336 20.553 5.12009 20.8835C6.45681 21.214 7.8644 21.1362 9.1549 20.6604C10.4454 20.1846 11.5574 19.3336 12.3424 18.2209C13.1273 17.1081 13.5479 15.7867 13.548 14.4331L13.6575 7.13761C15.1997 8.24934 17.0635 8.84752 18.9766 8.84472L18.9762 5.1591Z" fill="white"/>
</svg>
