<svg width="22" height="14" viewBox="0 0 22 14" fill="none" xmlns="http://www.w3.org/2000/svg">
<path d="M11.9825 13.7482C4.46596 13.7482 0.178638 8.58748 0 0H3.76515C3.88882 6.30299 6.66459 8.97281 8.86321 9.52329V0H12.4085V5.43598C14.5796 5.20203 16.8607 2.72487 17.6302 0H21.1755C20.8855 1.4132 20.3075 2.75127 19.4776 3.93052C18.6477 5.10977 17.5837 6.10483 16.3523 6.85347C17.7269 7.53752 18.941 8.50573 19.9145 9.69421C20.888 10.8827 21.5988 12.2644 22 13.7482H18.0974C17.7373 12.4594 17.0054 11.3058 15.9934 10.4318C14.9814 9.55781 13.7343 9.00241 12.4085 8.83519V13.7482H11.9825Z" fill="white"/>
</svg>
