<svg width="21" height="21" viewBox="0 0 21 21" fill="none" xmlns="http://www.w3.org/2000/svg">
<path d="M17.9268 3.00742C15.9512 1.07408 13.3171 0 10.5366 0C4.7561 0 0.0731696 4.58274 0.0731696 10.2396C0.0731696 12.0297 0.585366 13.8198 1.46341 15.3235L0 20.6223L5.56098 19.1902C7.09756 19.9779 8.78049 20.4075 10.5366 20.4075C16.3171 20.4075 21 15.8248 21 10.168C20.9268 7.51856 19.9024 4.94077 17.9268 3.00742ZM15.5854 13.8914C15.3659 14.4643 14.3415 15.0371 13.8293 15.1087C13.3902 15.1803 12.8049 15.1803 12.2195 15.0371C11.8537 14.8939 11.3415 14.7507 10.7561 14.4643C8.12195 13.3902 6.43903 10.8124 6.29268 10.5976C6.14634 10.4544 5.19512 9.23709 5.19512 7.94819C5.19512 6.65929 5.85366 6.08645 6.07317 5.80003C6.29268 5.51361 6.58536 5.51361 6.80488 5.51361C6.95122 5.51361 7.17073 5.51361 7.31707 5.51361C7.46341 5.51361 7.68293 5.442 7.90244 5.94324C8.12195 6.44448 8.63414 7.73337 8.70731 7.80498C8.78049 7.94819 8.78049 8.0914 8.70731 8.23461C8.63414 8.37782 8.56097 8.52103 8.41463 8.66424C8.26829 8.80745 8.12195 9.02227 8.04878 9.09387C7.90244 9.23709 7.7561 9.38029 7.90244 9.59511C8.04878 9.88153 8.56097 10.6692 9.36585 11.3852C10.3902 12.2445 11.1951 12.5309 11.4878 12.6741C11.7805 12.8174 11.9268 12.7457 12.0732 12.6025C12.2195 12.4593 12.7317 11.8865 12.878 11.6001C13.0244 11.3136 13.2439 11.3852 13.4634 11.4569C13.6829 11.5285 15 12.1729 15.2195 12.3161C15.5122 12.4593 15.6585 12.5309 15.7317 12.6025C15.8049 12.8174 15.8049 13.3186 15.5854 13.8914Z" fill="white"/>
</svg>
